<svg width="225" height="169" viewBox="0 0 225 169" fill="none" xmlns="http://www.w3.org/2000/svg">
<path d="M224.209 148.05H0V148.163H224.209V148.05Z" fill="#FAFAFA"/>
<path d="M189.779 152.97H178.645V153.083H189.779V152.97Z" fill="#E0E0E0"/>
<path d="M196.833 152.911H193.071V153.024H196.833V152.911Z" fill="#E0E0E0"/>
<path d="M148.888 153.671H125.575V153.784H148.888V153.671Z" fill="#E0E0E0"/>
<path d="M120.073 154.896H116.598V155.01H120.073V154.896Z" fill="#E0E0E0"/>
<path d="M50.2003 151.319H44.2095V151.432H50.2003V151.319Z" fill="#E0E0E0"/>
<path d="M83.0737 151.319H52.689V151.432H83.0737V151.319Z" fill="#E0E0E0"/>
<path d="M57.1731 154.051H36.0347V154.164H57.1731V154.051Z" fill="#E0E0E0"/>
<path d="M106.275 127.882H19.6903C19.012 127.881 18.3618 127.608 17.8826 127.124C17.4034 126.64 17.1343 125.984 17.1343 125.3V2.55945C17.1402 1.87935 17.4119 1.22907 17.8905 0.749845C18.3691 0.270622 19.0158 0.00116504 19.6903 0H106.275C106.954 0 107.606 0.272038 108.086 0.756268C108.566 1.2405 108.836 1.89725 108.836 2.58206V125.3C108.836 125.985 108.566 126.642 108.086 127.126C107.606 127.61 106.954 127.882 106.275 127.882ZM19.6903 0.0904402C19.0417 0.0916381 18.4201 0.352293 17.9619 0.815192C17.5037 1.27809 17.2464 1.90541 17.2464 2.55945V125.3C17.2464 125.954 17.5037 126.581 17.9619 127.044C18.4201 127.507 19.0417 127.768 19.6903 127.769H106.275C106.924 127.768 107.546 127.507 108.005 127.044C108.464 126.582 108.722 125.954 108.724 125.3V2.55945C108.722 1.90499 108.464 1.27769 108.005 0.814916C107.546 0.352146 106.924 0.0916356 106.275 0.0904402H19.6903Z" fill="#E0E0E0"/>
<path d="M203.272 127.882H116.683C116.004 127.881 115.353 127.608 114.873 127.124C114.393 126.64 114.123 125.984 114.122 125.3V2.55945C114.129 1.87894 114.402 1.22866 114.881 0.749562C115.36 0.270464 116.008 0.00115234 116.683 0H203.272C203.946 0.00235347 204.591 0.272337 205.069 0.751432C205.546 1.23053 205.818 1.88013 205.823 2.55945V125.3C205.823 125.983 205.555 126.639 205.077 127.123C204.598 127.606 203.949 127.88 203.272 127.882ZM116.683 0.0904402C116.034 0.0916356 115.411 0.352146 114.953 0.814916C114.494 1.27769 114.235 1.90499 114.234 2.55945V125.3C114.235 125.954 114.494 126.582 114.953 127.044C115.411 127.507 116.034 127.768 116.683 127.769H203.272C203.921 127.768 204.543 127.507 205.002 127.044C205.461 126.582 205.719 125.954 205.72 125.3V2.55945C205.719 1.90499 205.461 1.27769 205.002 0.814916C204.543 0.352146 203.921 0.0916356 203.272 0.0904402H116.683Z" fill="#E0E0E0"/>
<path d="M153.247 148.05H169.089V119.055H153.247V148.05Z" fill="#E0E0E0"/>
<path d="M187.99 119.055H169.089V148.05H187.99V119.055Z" fill="#EBEBEB"/>
<g style="mix-blend-mode:multiply" opacity="0.7">
<path d="M153.247 122.822H188.156V121.511H153.247V122.822Z" fill="#E0E0E0"/>
</g>
<path d="M152.372 122.058H169.089V116.016H152.372V122.058Z" fill="#E0E0E0"/>
<path d="M188.865 116.021H169.089V122.062H188.865V116.021Z" fill="#EBEBEB"/>
<path d="M87.0198 8.58691H33.6895V72.754H87.0198V8.58691Z" fill="#E0E0E0"/>
<path d="M89.4637 8.58691H34.833V72.754H89.4637V8.58691Z" fill="#EBEBEB"/>
<path d="M87.0198 72.7539H33.6895V77.3256H87.0198V72.7539Z" fill="#E0E0E0"/>
<path d="M93.5262 72.7539H38.8955V77.3256H93.5262V72.7539Z" fill="#EBEBEB"/>
<path d="M86.0469 69.3088V12.0332L38.25 12.0332V69.3088H86.0469Z" fill="#F5F5F5"/>
<path d="M44.1152 69.3088L64.164 12.0332H73.6256L53.5813 69.3088H44.1152Z" fill="#FAFAFA"/>
<path d="M39.8286 49.8777C39.7639 49.8765 39.7024 49.8498 39.6571 49.8033C39.6118 49.7568 39.5864 49.6942 39.5864 49.629V14.2715C39.5864 14.2068 39.6119 14.1447 39.6573 14.0989C39.7028 14.0531 39.7644 14.0273 39.8286 14.0273C39.8932 14.0273 39.9553 14.0529 40.0014 14.0986C40.0475 14.1443 40.074 14.2064 40.0752 14.2715V49.629C40.0752 49.695 40.0492 49.7582 40.003 49.8049C39.9567 49.8515 39.894 49.8777 39.8286 49.8777Z" fill="#EBEBEB"/>
<path d="M55.6128 69.3088L75.6615 12.0332H79.352L59.3033 69.3088H55.6128Z" fill="#FAFAFA"/>
<path d="M86.0425 69.3088V12.0332H85.6075V69.3088H86.0425Z" fill="#E0E0E0"/>
<path d="M90.2667 16.437H36.9408L36.627 13.3711H89.9528L90.2667 16.437Z" fill="#E0E0E0"/>
<path d="M90.2667 18.6847H36.9408L36.627 15.6143H89.9528L90.2667 18.6847Z" fill="#E0E0E0"/>
<path d="M90.2667 21.38H36.9408L36.627 18.3096H89.9528L90.2667 21.38Z" fill="#E0E0E0"/>
<path d="M90.2667 24.3784H36.9408L36.627 21.3125H89.9528L90.2667 24.3784Z" fill="#E0E0E0"/>
<path d="M90.2667 27.9728H36.9408L36.627 24.9023H89.9528L90.2667 27.9728Z" fill="#E0E0E0"/>
<path d="M90.2667 32.0112H36.9408L36.627 28.9453H89.9528L90.2667 32.0112Z" fill="#E0E0E0"/>
<path d="M184.012 8.58691H130.682V72.754H184.012V8.58691Z" fill="#E0E0E0"/>
<path d="M186.452 8.58691H131.821V72.754H186.452V8.58691Z" fill="#EBEBEB"/>
<path d="M184.012 72.7539H130.682V77.3256H184.012V72.7539Z" fill="#E0E0E0"/>
<path d="M190.519 72.7539H135.889V77.3256H190.519V72.7539Z" fill="#EBEBEB"/>
<path d="M183.04 69.3088V12.0332L135.243 12.0332V69.3088H183.04Z" fill="#F5F5F5"/>
<path d="M141.108 69.3088L161.157 12.0332H170.618L150.57 69.3088H141.108Z" fill="#FAFAFA"/>
<path d="M136.821 49.8777C136.757 49.8765 136.695 49.8498 136.65 49.8033C136.604 49.7568 136.579 49.6942 136.579 49.629V14.2715C136.579 14.2068 136.605 14.1447 136.65 14.0989C136.695 14.0531 136.757 14.0273 136.821 14.0273C136.885 14.0273 136.947 14.0531 136.992 14.0989C137.038 14.1447 137.063 14.2068 137.063 14.2715V49.629C137.063 49.6942 137.038 49.7568 136.993 49.8033C136.947 49.8498 136.886 49.8765 136.821 49.8777Z" fill="#EBEBEB"/>
<path d="M152.605 69.3088L172.654 12.0332H176.34L156.296 69.3088H152.605Z" fill="#FAFAFA"/>
<path d="M183.035 69.3088V12.0332H182.6V69.3088H183.035Z" fill="#E0E0E0"/>
<path d="M187.259 16.437H133.933L133.615 13.3711H186.945L187.259 16.437Z" fill="#E0E0E0"/>
<path d="M187.259 18.6847H133.933L133.615 15.6143H186.945L187.259 18.6847Z" fill="#E0E0E0"/>
<path d="M187.259 21.38H133.933L133.615 18.3096H186.945L187.259 21.38Z" fill="#E0E0E0"/>
<path d="M187.259 24.3784H133.933L133.615 21.3125H186.945L187.259 24.3784Z" fill="#E0E0E0"/>
<path d="M187.259 27.9728H133.933L133.615 24.9023H186.945L187.259 27.9728Z" fill="#E0E0E0"/>
<path d="M187.259 32.0112H133.933L133.615 28.9453H186.945L187.259 32.0112Z" fill="#E0E0E0"/>
<path d="M142.615 107.379H131.965V148.05H142.615V107.379Z" fill="#E0E0E0"/>
<path d="M140.588 148.05H142.61V143.066H138.467L140.588 148.05Z" fill="#F5F5F5"/>
<path d="M39.2632 107.379H28.6133V148.05H39.2632V107.379Z" fill="#E0E0E0"/>
<path d="M142.615 107.379H37.4966V145.309H142.615V107.379Z" fill="#F5F5F5"/>
<path d="M90.7329 109.278V136.365H141.045V109.278H90.7329Z" fill="#E0E0E0"/>
<path d="M39.0659 109.278V136.365H89.3784V109.278H39.0659Z" fill="#E0E0E0"/>
<path d="M141.041 142.09V139.074H90.7286V142.09H141.041Z" fill="#E0E0E0"/>
<path d="M89.374 142.094V139.078H39.0616V142.094H89.374Z" fill="#E0E0E0"/>
<path d="M81.9393 110.898H46.5144C45.7278 110.898 44.9493 110.738 44.2256 110.427C43.502 110.117 42.8482 109.661 42.3037 109.089H86.1679C85.6213 109.663 84.9646 110.12 84.2377 110.431C83.5109 110.742 82.7289 110.901 81.9393 110.898Z" fill="#F5F5F5"/>
<path d="M133.794 110.898H98.3693C97.5828 110.898 96.8043 110.738 96.0806 110.427C95.357 110.117 94.7032 109.661 94.1587 109.089H138.023C137.477 109.665 136.821 110.122 136.094 110.433C135.367 110.744 134.584 110.902 133.794 110.898Z" fill="#F5F5F5"/>
<path d="M39.519 148.05H37.4922V143.066H41.6356L39.519 148.05Z" fill="#F5F5F5"/>
<g style="mix-blend-mode:multiply" opacity="0.4">
<path d="M114.597 82.4092H102.741V107.38H114.597V82.4092Z" fill="#E0E0E0"/>
</g>
<path d="M124.557 107.38H104.49L102.603 80.415H122.665L124.557 107.38Z" fill="#E0E0E0"/>
<path d="M126.839 107.38H105.06L103.172 80.415H124.947L126.839 107.38Z" fill="#F5F5F5"/>
<path d="M106.069 106.348L104.324 81.4453H123.942L125.691 106.348H106.069Z" fill="#FAFAFA"/>
<path d="M110.818 100.773L109.854 87.0215H119.194L120.158 100.773H110.818Z" fill="#F5F5F5"/>
<path d="M71.4552 102.952C74.333 102.952 76.6659 100.6 76.6659 97.6979C76.6659 94.7959 74.333 92.4434 71.4552 92.4434C68.5775 92.4434 66.2446 94.7959 66.2446 97.6979C66.2446 100.6 68.5775 102.952 71.4552 102.952Z" fill="#EBEBEB"/>
<path d="M80.3791 105.457C83.2568 105.457 85.5897 103.105 85.5897 100.203C85.5897 97.3008 83.2568 94.9482 80.3791 94.9482C77.5013 94.9482 75.1685 97.3008 75.1685 100.203C75.1685 103.105 77.5013 105.457 80.3791 105.457Z" fill="#EBEBEB"/>
<path d="M89.2455 101.249C91.0201 100.512 91.8661 98.4636 91.135 96.674C90.4039 94.8844 88.3726 94.0314 86.598 94.7686C84.8234 95.5059 83.9774 97.5543 84.7085 99.3439C85.4396 101.133 87.4709 101.987 89.2455 101.249Z" fill="#EBEBEB"/>
<path d="M80.1057 95.083C80.4125 93.1724 79.1254 91.3727 77.2307 91.0633C75.3361 90.7538 73.5515 92.0518 73.2446 93.9624C72.9377 95.873 74.2249 97.6727 76.1195 97.9822C78.0141 98.2916 79.7988 96.9936 80.1057 95.083Z" fill="#EBEBEB"/>
<path d="M63.1235 99.2627C63.1235 99.2627 63.5316 107.38 79.1679 107.38C94.8042 107.38 95.2123 99.2627 95.2123 99.2627H63.1235Z" fill="#E0E0E0"/>
<path d="M48.6845 104.598C48.6845 104.598 43.5905 95.7441 50.6576 88.6943C50.6576 88.6943 52.5006 89.9062 52.4513 91.5387C52.4019 93.1711 50.4737 93.5781 50.8908 94.9392C51.3078 96.3003 53.1328 97.6524 51.9445 98.7603C50.7562 99.8682 52.1374 100.881 52.0566 102.26C51.9759 103.64 48.6845 104.598 48.6845 104.598Z" fill="#E0E0E0"/>
<path d="M49.0702 105.408C49.0702 105.408 51.1329 95.3871 42.2228 90.9375C42.2228 90.9375 40.8507 92.6785 41.3888 94.2159C41.9269 95.7534 43.8999 95.5228 43.9313 96.9291C43.9627 98.3355 42.6309 100.203 44.1286 100.886C45.6263 101.569 44.6084 102.966 45.1151 104.246C45.6218 105.525 49.0702 105.408 49.0702 105.408Z" fill="#E0E0E0"/>
<path d="M41.2544 100.772C41.2544 100.772 41.4248 107.379 47.9179 107.379C54.411 107.379 54.5814 100.772 54.5814 100.772H41.2544Z" fill="#EBEBEB"/>
<path d="M112.104 168.471C160.122 168.471 199.048 166.179 199.048 163.352C199.048 160.525 160.122 158.233 112.104 158.233C64.0867 158.233 25.1606 160.525 25.1606 163.352C25.1606 166.179 64.0867 168.471 112.104 168.471Z" fill="#F5F5F5"/>
<path d="M80.9168 98.3264C80.6509 98.3088 80.4016 98.1899 80.2195 97.9938C80.0374 97.7978 79.936 97.5392 79.936 97.2705C79.936 97.0018 80.0374 96.7432 80.2195 96.5471C80.4016 96.351 80.6509 96.2322 80.9168 96.2146C83.4817 96.2146 85.6431 92.5111 85.6431 88.1248C85.6605 87.8567 85.7784 87.6053 85.9728 87.4216C86.1673 87.2379 86.4237 87.1357 86.6901 87.1357C86.9566 87.1357 87.213 87.2379 87.4075 87.4216C87.6019 87.6053 87.7198 87.8567 87.7372 88.1248C87.7372 93.8451 84.7507 98.3264 80.9168 98.3264Z" fill="#407BFF"/>
<path d="M96.7415 98.3264C96.4756 98.3088 96.2264 98.1899 96.0442 97.9938C95.8621 97.7978 95.7607 97.5392 95.7607 97.2705C95.7607 97.0018 95.8621 96.7432 96.0442 96.5471C96.2264 96.351 96.4756 96.2322 96.7415 96.2146C99.3064 96.2146 101.468 92.5111 101.468 88.1248C101.485 87.8567 101.603 87.6053 101.798 87.4216C101.992 87.2379 102.248 87.1357 102.515 87.1357C102.781 87.1357 103.038 87.2379 103.232 87.4216C103.427 87.6053 103.545 87.8567 103.562 88.1248C103.584 93.8451 100.566 98.3264 96.7415 98.3264Z" fill="#407BFF"/>
<path d="M112.553 98.3265C112.287 98.309 112.037 98.1901 111.855 97.994C111.673 97.7979 111.572 97.5393 111.572 97.2706C111.572 97.002 111.673 96.7434 111.855 96.5473C112.037 96.3512 112.287 96.2323 112.553 96.2148C115.113 96.2148 117.279 92.5112 117.279 88.1249C117.279 87.8455 117.389 87.5775 117.585 87.3799C117.781 87.1823 118.047 87.0713 118.324 87.0713C118.601 87.0713 118.867 87.1823 119.062 87.3799C119.258 87.5775 119.368 87.8455 119.368 88.1249C119.382 93.8452 116.391 98.3265 112.553 98.3265Z" fill="#407BFF"/>
<path d="M128.391 98.3265C128.248 98.336 128.104 98.3157 127.969 98.2669C127.834 98.2181 127.71 98.1419 127.605 98.0429C127.5 97.944 127.417 97.8243 127.36 97.6915C127.302 97.5587 127.273 97.4154 127.273 97.2706C127.273 97.1259 127.302 96.9826 127.36 96.8498C127.417 96.717 127.5 96.5973 127.605 96.4984C127.71 96.3994 127.834 96.3232 127.969 96.2744C128.104 96.2256 128.248 96.2053 128.391 96.2148C130.951 96.2148 133.117 92.5112 133.117 88.1249C133.117 87.8455 133.227 87.5775 133.423 87.3799C133.619 87.1823 133.885 87.0713 134.162 87.0713C134.439 87.0713 134.705 87.1823 134.901 87.3799C135.097 87.5775 135.207 87.8455 135.207 88.1249C135.207 93.8452 132.211 98.3265 128.391 98.3265Z" fill="#407BFF"/>
<path d="M144.211 98.3264C143.945 98.3088 143.696 98.1899 143.514 97.9938C143.332 97.7978 143.23 97.5392 143.23 97.2705C143.23 97.0018 143.332 96.7432 143.514 96.5471C143.696 96.351 143.945 96.2322 144.211 96.2146C146.776 96.2146 148.938 92.5111 148.938 88.1248C148.955 87.8567 149.073 87.6053 149.267 87.4216C149.462 87.2379 149.718 87.1357 149.985 87.1357C150.251 87.1357 150.507 87.2379 150.702 87.4216C150.896 87.6053 151.014 87.8567 151.032 88.1248C151.032 93.8451 148.036 98.3264 144.211 98.3264Z" fill="#407BFF"/>
<path d="M160.035 98.3264C159.77 98.3088 159.52 98.1899 159.338 97.9938C159.156 97.7978 159.055 97.5392 159.055 97.2705C159.055 97.0018 159.156 96.7432 159.338 96.5471C159.52 96.351 159.77 96.2322 160.035 96.2146C162.596 96.2146 164.762 92.5111 164.762 88.1248C164.779 87.8567 164.897 87.6053 165.091 87.4216C165.286 87.2379 165.542 87.1357 165.809 87.1357C166.075 87.1357 166.332 87.2379 166.526 87.4216C166.721 87.6053 166.838 87.8567 166.856 88.1248C166.856 93.8451 163.86 98.3264 160.035 98.3264Z" fill="#407BFF"/>
<g opacity="0.3">
<path d="M80.9168 98.3264C80.6509 98.3088 80.4016 98.1899 80.2195 97.9938C80.0374 97.7978 79.936 97.5392 79.936 97.2705C79.936 97.0018 80.0374 96.7432 80.2195 96.5471C80.4016 96.351 80.6509 96.2322 80.9168 96.2146C83.4817 96.2146 85.6431 92.5111 85.6431 88.1248C85.6605 87.8567 85.7784 87.6053 85.9728 87.4216C86.1673 87.2379 86.4237 87.1357 86.6901 87.1357C86.9566 87.1357 87.213 87.2379 87.4075 87.4216C87.6019 87.6053 87.7198 87.8567 87.7372 88.1248C87.7372 93.8451 84.7507 98.3264 80.9168 98.3264Z" fill="black"/>
<path d="M96.7415 98.3264C96.4756 98.3088 96.2264 98.1899 96.0442 97.9938C95.8621 97.7978 95.7607 97.5392 95.7607 97.2705C95.7607 97.0018 95.8621 96.7432 96.0442 96.5471C96.2264 96.351 96.4756 96.2322 96.7415 96.2146C99.3064 96.2146 101.468 92.5111 101.468 88.1248C101.485 87.8567 101.603 87.6053 101.798 87.4216C101.992 87.2379 102.248 87.1357 102.515 87.1357C102.781 87.1357 103.038 87.2379 103.232 87.4216C103.427 87.6053 103.545 87.8567 103.562 88.1248C103.584 93.8451 100.566 98.3264 96.7415 98.3264Z" fill="black"/>
<path d="M112.553 98.3265C112.287 98.309 112.037 98.1901 111.855 97.994C111.673 97.7979 111.572 97.5393 111.572 97.2706C111.572 97.002 111.673 96.7434 111.855 96.5473C112.037 96.3512 112.287 96.2323 112.553 96.2148C115.113 96.2148 117.279 92.5112 117.279 88.1249C117.279 87.8455 117.389 87.5775 117.585 87.3799C117.781 87.1823 118.047 87.0713 118.324 87.0713C118.601 87.0713 118.867 87.1823 119.062 87.3799C119.258 87.5775 119.368 87.8455 119.368 88.1249C119.382 93.8452 116.391 98.3265 112.553 98.3265Z" fill="black"/>
<path d="M128.391 98.3265C128.248 98.336 128.104 98.3157 127.969 98.2669C127.834 98.2181 127.71 98.1419 127.605 98.0429C127.5 97.944 127.417 97.8243 127.36 97.6915C127.302 97.5587 127.273 97.4154 127.273 97.2706C127.273 97.1259 127.302 96.9826 127.36 96.8498C127.417 96.717 127.5 96.5973 127.605 96.4984C127.71 96.3994 127.834 96.3232 127.969 96.2744C128.104 96.2256 128.248 96.2053 128.391 96.2148C130.951 96.2148 133.117 92.5112 133.117 88.1249C133.117 87.8455 133.227 87.5775 133.423 87.3799C133.619 87.1823 133.885 87.0713 134.162 87.0713C134.439 87.0713 134.705 87.1823 134.901 87.3799C135.097 87.5775 135.207 87.8455 135.207 88.1249C135.207 93.8452 132.211 98.3265 128.391 98.3265Z" fill="black"/>
<path d="M144.211 98.3264C143.945 98.3088 143.696 98.1899 143.513 97.9938C143.331 97.7978 143.23 97.5392 143.23 97.2705C143.23 97.0018 143.331 96.7432 143.513 96.5471C143.696 96.351 143.945 96.2322 144.211 96.2146C146.776 96.2146 148.937 92.5111 148.937 88.1248C148.954 87.8567 149.072 87.6053 149.267 87.4216C149.461 87.2379 149.718 87.1357 149.984 87.1357C150.251 87.1357 150.507 87.2379 150.701 87.4216C150.896 87.6053 151.014 87.8567 151.031 88.1248C151.031 93.8451 148.036 98.3264 144.211 98.3264Z" fill="black"/>
<path d="M160.035 98.3264C159.77 98.3088 159.52 98.1899 159.338 97.9938C159.156 97.7978 159.055 97.5392 159.055 97.2705C159.055 97.0018 159.156 96.7432 159.338 96.5471C159.52 96.351 159.77 96.2322 160.035 96.2146C162.596 96.2146 164.762 92.5111 164.762 88.1248C164.779 87.8567 164.897 87.6053 165.091 87.4216C165.286 87.2379 165.542 87.1357 165.809 87.1357C166.075 87.1357 166.332 87.2379 166.526 87.4216C166.721 87.6053 166.838 87.8567 166.856 88.1248C166.856 93.8451 163.86 98.3264 160.035 98.3264Z" fill="black"/>
</g>
<path d="M71.0022 89.2056H172.874C174.24 89.2332 175.549 89.7625 176.555 90.6941C177.561 91.6258 178.196 92.8957 178.34 94.2658L183.981 158.401C184.05 159.045 183.982 159.696 183.783 160.311C183.583 160.926 183.256 161.492 182.824 161.97C182.392 162.448 181.863 162.828 181.274 163.086C180.685 163.343 180.049 163.471 179.407 163.461H77.5312C76.1659 163.432 74.858 162.902 73.852 161.971C72.846 161.039 72.2107 159.77 72.065 158.401L66.4284 94.2658C66.359 93.6221 66.4261 92.9709 66.6253 92.3554C66.8245 91.7398 67.1512 91.1741 67.5837 90.6956C68.0163 90.217 68.5447 89.8367 69.1341 89.5799C69.7235 89.323 70.3603 89.1954 71.0022 89.2056Z" fill="#407BFF"/>
<path opacity="0.4" d="M71.0022 89.2056H172.874C174.24 89.2332 175.549 89.7625 176.555 90.6941C177.561 91.6258 178.196 92.8957 178.34 94.2658L183.981 158.401C184.05 159.045 183.982 159.696 183.783 160.311C183.583 160.926 183.256 161.492 182.824 161.97C182.392 162.448 181.863 162.828 181.274 163.086C180.685 163.343 180.049 163.471 179.407 163.461H77.5312C76.1659 163.432 74.858 162.902 73.852 161.971C72.846 161.039 72.2107 159.77 72.065 158.401L66.4284 94.2658C66.359 93.6221 66.4261 92.9709 66.6253 92.3554C66.8245 91.7398 67.1512 91.1741 67.5837 90.6956C68.0163 90.217 68.5447 89.8367 69.1341 89.5799C69.7235 89.323 70.3603 89.1954 71.0022 89.2056Z" fill="#FAFAFA"/>
<path d="M172.026 89.2052H70.1503C68.8028 89.2213 67.5116 89.7528 66.5377 90.6921C65.5639 91.6314 64.9799 92.9085 64.9038 94.2653L62.034 158.401C61.9998 159.054 62.0982 159.708 62.3233 160.321C62.5483 160.935 62.8952 161.496 63.3427 161.97C63.7903 162.443 64.329 162.82 64.9259 163.076C65.5228 163.333 66.1653 163.464 66.8141 163.461H168.699C170.047 163.445 171.338 162.913 172.312 161.974C173.286 161.035 173.87 159.758 173.946 158.401L176.82 94.2653C176.854 93.6109 176.754 92.9565 176.528 92.3422C176.302 91.7279 175.954 91.1667 175.505 90.6929C175.056 90.2191 174.516 89.8428 173.918 89.587C173.32 89.3311 172.676 89.2012 172.026 89.2052Z" fill="#407BFF"/>
<path opacity="0.2" d="M172.026 89.2052H70.1503C68.8028 89.2213 67.5116 89.7528 66.5377 90.6921C65.5639 91.6314 64.9799 92.9085 64.9038 94.2653L62.034 158.401C61.9998 159.054 62.0982 159.708 62.3233 160.321C62.5483 160.935 62.8952 161.496 63.3427 161.97C63.7903 162.443 64.329 162.82 64.9259 163.076C65.5228 163.333 66.1653 163.464 66.8141 163.461H168.699C170.047 163.445 171.338 162.913 172.312 161.974C173.286 161.035 173.87 159.758 173.946 158.401L176.82 94.2653C176.854 93.6109 176.754 92.9565 176.528 92.3422C176.302 91.7279 175.954 91.1667 175.505 90.6929C175.056 90.2191 174.516 89.8428 173.918 89.587C173.32 89.3311 172.676 89.2012 172.026 89.2052Z" fill="#FAFAFA"/>
<path d="M72.02 146.513L74.3921 93.5468C74.4206 93.0272 74.6441 92.538 75.0172 92.1786C75.3903 91.8191 75.8851 91.6163 76.4011 91.6114H165.56C165.808 91.6098 166.055 91.6594 166.284 91.7573C166.512 91.8551 166.719 91.999 166.891 92.1803C167.063 92.3615 167.196 92.5762 167.282 92.8111C167.369 93.0461 167.407 93.2965 167.394 93.5468L165.017 146.513C164.989 147.032 164.765 147.522 164.392 147.881C164.019 148.241 163.524 148.443 163.008 148.448H73.854C73.6055 148.45 73.3592 148.4 73.1304 148.302C72.9015 148.205 72.6949 148.061 72.5232 147.879C72.3514 147.698 72.2182 147.484 72.1317 147.249C72.0452 147.014 72.0072 146.763 72.02 146.513Z" fill="#407BFF"/>
<path opacity="0.1" d="M72.02 146.513L74.3921 93.5468C74.4206 93.0272 74.6441 92.538 75.0172 92.1786C75.3903 91.8191 75.8851 91.6163 76.4011 91.6114H165.56C165.808 91.6098 166.055 91.6594 166.284 91.7573C166.512 91.8551 166.719 91.999 166.891 92.1803C167.063 92.3615 167.196 92.5762 167.282 92.8111C167.369 93.0461 167.407 93.2965 167.394 93.5468L165.017 146.513C164.989 147.032 164.765 147.522 164.392 147.881C164.019 148.241 163.524 148.443 163.008 148.448H73.854C73.6055 148.45 73.3592 148.4 73.1304 148.302C72.9015 148.205 72.6949 148.061 72.5232 147.879C72.3514 147.698 72.2182 147.484 72.1317 147.249C72.0452 147.014 72.0072 146.763 72.02 146.513Z" fill="#FAFAFA"/>
<path opacity="0.1" d="M69.5048 150.836L71.9935 95.215C72.022 94.6695 72.2561 94.1555 72.6478 93.7782C73.0395 93.4008 73.5593 93.1885 74.101 93.1846H167.731C167.992 93.1824 168.25 93.2341 168.49 93.3365C168.731 93.4389 168.948 93.5899 169.128 93.7802C169.308 93.9704 169.448 94.1959 169.539 94.4426C169.629 94.6894 169.668 94.9523 169.654 95.215L167.161 150.836C167.133 151.381 166.899 151.895 166.509 152.273C166.118 152.651 165.599 152.864 165.058 152.87H71.4195C71.1588 152.872 70.9005 152.82 70.6605 152.717C70.4206 152.614 70.2043 152.462 70.0248 152.271C69.8453 152.081 69.7066 151.855 69.6171 151.608C69.5277 151.361 69.4894 151.098 69.5048 150.836Z" fill="black"/>
<path d="M67.1907 155.322L69.787 97.3045C69.8219 96.7372 70.0673 96.2039 70.4745 95.8109C70.8817 95.4179 71.4207 95.1939 71.9842 95.1837H169.654C169.927 95.1814 170.197 95.2355 170.448 95.3425C170.699 95.4495 170.925 95.6072 171.113 95.8059C171.302 96.0046 171.447 96.2401 171.542 96.4978C171.637 96.7556 171.678 97.0301 171.663 97.3045L169.053 155.322C169.018 155.889 168.773 156.422 168.366 156.815C167.959 157.208 167.42 157.432 166.856 157.442H69.1996C68.9269 157.445 68.6565 157.392 68.4053 157.285C68.154 157.178 67.9271 157.02 67.7388 156.822C67.5504 156.623 67.4046 156.387 67.3103 156.129C67.216 155.871 67.1753 155.596 67.1907 155.322Z" fill="#FAFAFA"/>
<path d="M160.022 98.6608C159.838 98.6611 159.657 98.6235 159.488 98.5503C159.319 98.4771 159.167 98.3699 159.041 98.2351C158.915 98.1004 158.818 97.9411 158.755 97.767C158.692 97.5929 158.666 97.4077 158.677 97.2228C158.694 96.86 158.848 96.5175 159.107 96.2654C159.366 96.0132 159.711 95.8704 160.071 95.8662C160.255 95.8659 160.437 95.9035 160.605 95.9767C160.774 96.0499 160.926 96.1572 161.052 96.2919C161.178 96.4266 161.276 96.5859 161.338 96.76C161.401 96.9341 161.428 97.1193 161.417 97.3042C161.399 97.667 161.246 98.0095 160.986 98.2617C160.727 98.5138 160.382 98.6566 160.022 98.6608Z" fill="#407BFF"/>
<path d="M144.197 98.6608C144.014 98.6611 143.832 98.6235 143.663 98.5503C143.494 98.4771 143.342 98.3699 143.216 98.2351C143.09 98.1004 142.993 97.9411 142.93 97.767C142.868 97.5929 142.841 97.4077 142.852 97.2228C142.869 96.86 143.023 96.5175 143.282 96.2654C143.542 96.0132 143.886 95.8704 144.247 95.8662C144.43 95.8659 144.612 95.9035 144.781 95.9767C144.949 96.0499 145.102 96.1572 145.228 96.2919C145.354 96.4266 145.451 96.5859 145.514 96.76C145.576 96.9341 145.603 97.1193 145.592 97.3042C145.576 97.6674 145.422 98.0105 145.163 98.2629C144.903 98.5153 144.558 98.6577 144.197 98.6608Z" fill="#407BFF"/>
<path d="M128.373 98.6608C128.189 98.6611 128.008 98.6235 127.839 98.5503C127.67 98.4771 127.518 98.3699 127.392 98.2351C127.266 98.1004 127.169 97.9411 127.106 97.767C127.043 97.5929 127.017 97.4077 127.028 97.2228C127.046 96.8604 127.2 96.5185 127.459 96.2666C127.718 96.0146 128.063 95.8715 128.422 95.8662C128.606 95.8659 128.788 95.9035 128.957 95.9767C129.125 96.0499 129.277 96.1572 129.403 96.2919C129.529 96.4266 129.627 96.5859 129.689 96.76C129.752 96.9341 129.779 97.1193 129.768 97.3042C129.752 97.6674 129.598 98.0105 129.339 98.2629C129.079 98.5153 128.734 98.6577 128.373 98.6608Z" fill="#407BFF"/>
<path d="M112.553 98.6608C112.369 98.6611 112.187 98.6235 112.019 98.5503C111.85 98.4771 111.698 98.3699 111.572 98.2351C111.446 98.1004 111.348 97.9411 111.286 97.767C111.223 97.5929 111.196 97.4077 111.208 97.2228C111.227 96.86 111.382 96.5181 111.642 96.2662C111.901 96.0144 112.246 95.8714 112.607 95.8662C112.79 95.8659 112.972 95.9035 113.141 95.9767C113.309 96.0499 113.461 96.1572 113.588 96.2919C113.714 96.4266 113.811 96.5859 113.874 96.76C113.936 96.9341 113.963 97.1193 113.952 97.3042C113.936 97.6681 113.782 98.0119 113.521 98.2644C113.261 98.5169 112.914 98.6588 112.553 98.6608Z" fill="#407BFF"/>
<path d="M96.728 98.6608C96.5444 98.6611 96.3626 98.6235 96.1939 98.5503C96.0252 98.4771 95.8731 98.3699 95.7471 98.2351C95.6211 98.1004 95.5237 97.9411 95.4611 97.767C95.3984 97.5929 95.3718 97.4077 95.3828 97.2228C95.3999 96.86 95.5538 96.5175 95.8131 96.2654C96.0723 96.0132 96.4172 95.8704 96.7774 95.8662C96.961 95.8659 97.1428 95.9035 97.3115 95.9767C97.4802 96.0499 97.6323 96.1572 97.7583 96.2919C97.8844 96.4266 97.9817 96.5859 98.0444 96.76C98.107 96.9341 98.1336 97.1193 98.1226 97.3042C98.1055 97.667 97.9516 98.0095 97.6924 98.2617C97.4331 98.5138 97.0882 98.6566 96.728 98.6608Z" fill="#407BFF"/>
<path d="M80.9033 98.6608C80.7197 98.6611 80.5379 98.6235 80.3692 98.5503C80.2005 98.4771 80.0484 98.3699 79.9224 98.2351C79.7964 98.1004 79.699 97.9411 79.6364 97.767C79.5737 97.5929 79.5471 97.4077 79.5581 97.2228C79.5752 96.86 79.7291 96.5175 79.9883 96.2654C80.2476 96.0132 80.5925 95.8704 80.9527 95.8662C81.1363 95.8659 81.3181 95.9035 81.4868 95.9767C81.6555 96.0499 81.8076 96.1572 81.9336 96.2919C82.0597 96.4266 82.157 96.5859 82.2197 96.76C82.2823 96.9341 82.3089 97.1193 82.2979 97.3042C82.2819 97.6674 82.1283 98.0105 81.8688 98.2629C81.6094 98.5153 81.2638 98.6577 80.9033 98.6608Z" fill="#407BFF"/>
<g opacity="0.1">
<path d="M160.022 98.6608C159.838 98.6611 159.657 98.6235 159.488 98.5503C159.319 98.4771 159.167 98.3699 159.041 98.2351C158.915 98.1004 158.818 97.9411 158.755 97.767C158.692 97.5929 158.666 97.4077 158.677 97.2228C158.694 96.86 158.848 96.5175 159.107 96.2654C159.366 96.0132 159.711 95.8704 160.071 95.8662C160.255 95.8659 160.437 95.9035 160.605 95.9767C160.774 96.0499 160.926 96.1572 161.052 96.2919C161.178 96.4266 161.276 96.5859 161.338 96.76C161.401 96.9341 161.428 97.1193 161.417 97.3042C161.399 97.667 161.246 98.0095 160.986 98.2617C160.727 98.5138 160.382 98.6566 160.022 98.6608Z" fill="#FAFAFA"/>
<path d="M144.197 98.6608C144.014 98.6611 143.832 98.6235 143.663 98.5503C143.494 98.4771 143.342 98.3699 143.216 98.2351C143.09 98.1004 142.993 97.9411 142.93 97.767C142.868 97.5929 142.841 97.4077 142.852 97.2228C142.869 96.86 143.023 96.5175 143.282 96.2654C143.542 96.0132 143.886 95.8704 144.247 95.8662C144.43 95.8659 144.612 95.9035 144.781 95.9767C144.949 96.0499 145.102 96.1572 145.228 96.2919C145.354 96.4266 145.451 96.5859 145.514 96.76C145.576 96.9341 145.603 97.1193 145.592 97.3042C145.576 97.6674 145.422 98.0105 145.163 98.2629C144.903 98.5153 144.558 98.6577 144.197 98.6608Z" fill="#FAFAFA"/>
<path d="M128.373 98.6608C128.189 98.6611 128.007 98.6235 127.838 98.5503C127.67 98.4771 127.518 98.3699 127.392 98.2351C127.266 98.1004 127.168 97.9411 127.106 97.767C127.043 97.5929 127.016 97.4077 127.027 97.2228C127.046 96.8604 127.2 96.5185 127.459 96.2666C127.718 96.0146 128.062 95.8715 128.422 95.8662C128.606 95.8659 128.787 95.9035 128.956 95.9767C129.125 96.0499 129.277 96.1572 129.403 96.2919C129.529 96.4266 129.626 96.5859 129.689 96.76C129.752 96.9341 129.778 97.1193 129.767 97.3042C129.751 97.6674 129.598 98.0105 129.338 98.2629C129.079 98.5153 128.733 98.6577 128.373 98.6608Z" fill="#FAFAFA"/>
<path d="M112.553 98.6608C112.369 98.6611 112.187 98.6235 112.019 98.5503C111.85 98.4771 111.698 98.3699 111.572 98.2351C111.446 98.1004 111.348 97.9411 111.286 97.767C111.223 97.5929 111.196 97.4077 111.208 97.2228C111.227 96.86 111.382 96.5181 111.642 96.2662C111.901 96.0144 112.246 95.8714 112.607 95.8662C112.79 95.8659 112.972 95.9035 113.141 95.9767C113.309 96.0499 113.461 96.1572 113.588 96.2919C113.714 96.4266 113.811 96.5859 113.874 96.76C113.936 96.9341 113.963 97.1193 113.952 97.3042C113.936 97.6681 113.782 98.0119 113.521 98.2644C113.261 98.5169 112.914 98.6588 112.553 98.6608Z" fill="#FAFAFA"/>
<path d="M96.728 98.6608C96.5444 98.6611 96.3626 98.6235 96.1939 98.5503C96.0252 98.4771 95.8731 98.3699 95.7471 98.2351C95.6211 98.1004 95.5237 97.9411 95.4611 97.767C95.3984 97.5929 95.3718 97.4077 95.3828 97.2228C95.3999 96.86 95.5538 96.5175 95.8131 96.2654C96.0723 96.0132 96.4172 95.8704 96.7774 95.8662C96.961 95.8659 97.1428 95.9035 97.3115 95.9767C97.4802 96.0499 97.6323 96.1572 97.7583 96.2919C97.8844 96.4266 97.9817 96.5859 98.0444 96.76C98.107 96.9341 98.1336 97.1193 98.1226 97.3042C98.1055 97.667 97.9516 98.0095 97.6924 98.2617C97.4331 98.5138 97.0882 98.6566 96.728 98.6608Z" fill="#FAFAFA"/>
<path d="M80.9033 98.6608C80.7197 98.6611 80.5379 98.6235 80.3692 98.5503C80.2005 98.4771 80.0484 98.3699 79.9224 98.2351C79.7964 98.1004 79.699 97.9411 79.6364 97.767C79.5737 97.5929 79.5471 97.4077 79.5581 97.2228C79.5752 96.86 79.7291 96.5175 79.9883 96.2654C80.2476 96.0132 80.5925 95.8704 80.9527 95.8662C81.1363 95.8659 81.3181 95.9035 81.4868 95.9767C81.6555 96.0499 81.8076 96.1572 81.9336 96.2919C82.0597 96.4266 82.157 96.5859 82.2197 96.76C82.2823 96.9341 82.3089 97.1193 82.2979 97.3042C82.2819 97.6674 82.1283 98.0105 81.8688 98.2629C81.6094 98.5153 81.2638 98.6577 80.9033 98.6608Z" fill="#FAFAFA"/>
</g>
<path d="M84.8584 103.717H76.899C76.7836 103.718 76.6693 103.695 76.5632 103.649C76.4572 103.603 76.3617 103.535 76.2829 103.45C76.2041 103.365 76.1436 103.265 76.1054 103.155C76.0671 103.045 76.0518 102.929 76.0605 102.813C76.0694 102.576 76.1667 102.351 76.333 102.183C76.4993 102.015 76.7223 101.917 76.9573 101.908H84.9167C85.0321 101.907 85.1465 101.93 85.2525 101.976C85.3585 102.022 85.454 102.09 85.5328 102.175C85.6116 102.26 85.6721 102.36 85.7104 102.47C85.7487 102.58 85.764 102.697 85.7553 102.813C85.7464 103.05 85.649 103.275 85.4827 103.442C85.3164 103.61 85.0935 103.708 84.8584 103.717Z" fill="#407BFF"/>
<path d="M100.683 103.717H92.7237C92.6083 103.718 92.494 103.695 92.3879 103.649C92.2819 103.603 92.1864 103.535 92.1076 103.45C92.0288 103.365 91.9684 103.265 91.9301 103.155C91.8918 103.045 91.8765 102.929 91.8852 102.813C91.8943 102.572 91.9948 102.344 92.1659 102.175C92.3369 102.007 92.5655 101.912 92.8044 101.908H100.759C100.875 101.907 100.989 101.931 101.096 101.976C101.202 102.022 101.298 102.09 101.377 102.175C101.456 102.26 101.517 102.36 101.556 102.47C101.595 102.58 101.61 102.696 101.602 102.813C101.593 103.053 101.493 103.282 101.322 103.45C101.151 103.618 100.922 103.714 100.683 103.717Z" fill="#407BFF"/>
<path d="M116.508 103.717H108.548C108.433 103.718 108.318 103.695 108.212 103.649C108.106 103.603 108.01 103.536 107.931 103.451C107.852 103.366 107.791 103.265 107.752 103.155C107.713 103.046 107.697 102.929 107.705 102.813C107.714 102.572 107.815 102.344 107.986 102.175C108.157 102.007 108.385 101.912 108.624 101.908H116.588C116.704 101.907 116.818 101.93 116.924 101.976C117.03 102.022 117.126 102.09 117.204 102.175C117.283 102.26 117.344 102.36 117.382 102.47C117.42 102.58 117.436 102.697 117.427 102.813C117.419 103.054 117.319 103.283 117.147 103.451C116.976 103.62 116.747 103.715 116.508 103.717Z" fill="#407BFF"/>
<path d="M132.328 103.717H124.368C124.253 103.718 124.139 103.695 124.032 103.649C123.926 103.603 123.831 103.535 123.752 103.45C123.673 103.365 123.613 103.265 123.575 103.155C123.536 103.045 123.521 102.929 123.53 102.813C123.539 102.576 123.636 102.351 123.802 102.183C123.969 102.015 124.192 101.917 124.427 101.908H132.386C132.501 101.907 132.616 101.93 132.722 101.976C132.828 102.022 132.923 102.09 133.002 102.175C133.081 102.26 133.141 102.36 133.18 102.47C133.218 102.58 133.233 102.697 133.224 102.813C133.216 103.05 133.118 103.275 132.952 103.442C132.786 103.61 132.563 103.708 132.328 103.717Z" fill="#407BFF"/>
<path d="M148.152 103.717H140.193C140.078 103.718 139.963 103.695 139.857 103.649C139.751 103.603 139.656 103.535 139.577 103.45C139.498 103.365 139.438 103.265 139.399 103.155C139.361 103.045 139.346 102.929 139.354 102.813C139.364 102.572 139.464 102.344 139.635 102.175C139.806 102.007 140.035 101.912 140.274 101.908H148.233C148.348 101.907 148.463 101.93 148.569 101.976C148.675 102.022 148.77 102.09 148.849 102.175C148.928 102.26 148.988 102.36 149.027 102.47C149.065 102.58 149.08 102.697 149.072 102.813C149.062 103.053 148.962 103.282 148.791 103.45C148.62 103.618 148.391 103.714 148.152 103.717Z" fill="#407BFF"/>
<path d="M163.977 103.717H156.018C155.902 103.718 155.788 103.695 155.682 103.649C155.576 103.603 155.48 103.535 155.402 103.45C155.323 103.365 155.262 103.265 155.224 103.155C155.186 103.045 155.17 102.929 155.179 102.813C155.188 102.572 155.289 102.344 155.46 102.175C155.631 102.007 155.859 101.912 156.098 101.908H164.053C164.169 101.907 164.283 101.931 164.39 101.976C164.496 102.022 164.592 102.09 164.671 102.175C164.75 102.26 164.811 102.36 164.85 102.47C164.888 102.58 164.904 102.696 164.896 102.813C164.887 103.053 164.787 103.282 164.616 103.45C164.445 103.618 164.216 103.714 163.977 103.717Z" fill="#407BFF"/>
<g opacity="0.3">
<path d="M84.8584 103.717H76.899C76.7836 103.718 76.6693 103.695 76.5632 103.649C76.4572 103.603 76.3617 103.535 76.2829 103.45C76.2041 103.365 76.1436 103.265 76.1054 103.155C76.0671 103.045 76.0518 102.929 76.0605 102.813C76.0694 102.576 76.1667 102.351 76.333 102.183C76.4993 102.015 76.7223 101.917 76.9573 101.908H84.9167C85.0321 101.907 85.1465 101.93 85.2525 101.976C85.3585 102.022 85.454 102.09 85.5328 102.175C85.6116 102.26 85.6721 102.36 85.7104 102.47C85.7487 102.58 85.764 102.697 85.7553 102.813C85.7464 103.05 85.649 103.275 85.4827 103.442C85.3164 103.61 85.0935 103.708 84.8584 103.717Z" fill="black"/>
<path d="M100.683 103.717H92.7237C92.6083 103.718 92.494 103.695 92.3879 103.649C92.2819 103.603 92.1864 103.535 92.1076 103.45C92.0288 103.365 91.9684 103.265 91.9301 103.155C91.8918 103.045 91.8765 102.929 91.8852 102.813C91.8943 102.572 91.9948 102.344 92.1659 102.175C92.3369 102.007 92.5655 101.912 92.8044 101.908H100.759C100.875 101.907 100.989 101.931 101.096 101.976C101.202 102.022 101.298 102.09 101.377 102.175C101.456 102.26 101.517 102.36 101.556 102.47C101.595 102.58 101.61 102.696 101.602 102.813C101.593 103.053 101.493 103.282 101.322 103.45C101.151 103.618 100.922 103.714 100.683 103.717Z" fill="black"/>
<path d="M116.508 103.717H108.548C108.433 103.718 108.318 103.695 108.212 103.649C108.106 103.603 108.01 103.536 107.931 103.451C107.852 103.366 107.791 103.265 107.752 103.155C107.713 103.046 107.697 102.929 107.705 102.813C107.714 102.572 107.815 102.344 107.986 102.175C108.157 102.007 108.385 101.912 108.624 101.908H116.588C116.704 101.907 116.818 101.93 116.924 101.976C117.03 102.022 117.126 102.09 117.204 102.175C117.283 102.26 117.344 102.36 117.382 102.47C117.42 102.58 117.436 102.697 117.427 102.813C117.419 103.054 117.319 103.283 117.147 103.451C116.976 103.62 116.747 103.715 116.508 103.717Z" fill="black"/>
<path d="M132.328 103.717H124.369C124.253 103.718 124.139 103.695 124.033 103.649C123.927 103.603 123.831 103.535 123.753 103.45C123.674 103.365 123.613 103.265 123.575 103.155C123.537 103.045 123.522 102.929 123.53 102.813C123.539 102.576 123.636 102.351 123.803 102.183C123.969 102.015 124.192 101.917 124.427 101.908H132.386C132.502 101.907 132.616 101.93 132.722 101.976C132.828 102.022 132.924 102.09 133.003 102.175C133.081 102.26 133.142 102.36 133.18 102.47C133.218 102.58 133.234 102.697 133.225 102.813C133.216 103.05 133.119 103.275 132.952 103.442C132.786 103.61 132.563 103.708 132.328 103.717Z" fill="black"/>
<path d="M148.152 103.717H140.193C140.078 103.718 139.963 103.695 139.857 103.649C139.751 103.603 139.656 103.535 139.577 103.45C139.498 103.365 139.438 103.265 139.399 103.155C139.361 103.045 139.346 102.929 139.354 102.813C139.364 102.572 139.464 102.344 139.635 102.175C139.806 102.007 140.035 101.912 140.274 101.908H148.233C148.348 101.907 148.463 101.93 148.569 101.976C148.675 102.022 148.77 102.09 148.849 102.175C148.928 102.26 148.988 102.36 149.027 102.47C149.065 102.58 149.08 102.697 149.072 102.813C149.062 103.053 148.962 103.282 148.791 103.45C148.62 103.618 148.391 103.714 148.152 103.717Z" fill="black"/>
<path d="M163.977 103.717H156.018C155.902 103.718 155.788 103.695 155.682 103.649C155.576 103.603 155.48 103.535 155.402 103.45C155.323 103.365 155.262 103.265 155.224 103.155C155.186 103.045 155.17 102.929 155.179 102.813C155.188 102.572 155.289 102.344 155.46 102.175C155.631 102.007 155.859 101.912 156.098 101.908H164.053C164.169 101.907 164.283 101.931 164.39 101.976C164.496 102.022 164.592 102.09 164.671 102.175C164.75 102.26 164.811 102.36 164.85 102.47C164.888 102.58 164.904 102.696 164.896 102.813C164.887 103.053 164.787 103.282 164.616 103.45C164.445 103.618 164.216 103.714 163.977 103.717Z" fill="black"/>
</g>
<path d="M85.2976 120.796H74.9302C74.7029 120.797 74.4777 120.751 74.2685 120.661C74.0592 120.571 73.8704 120.44 73.7134 120.274C73.5564 120.108 73.4347 119.911 73.3555 119.696C73.2764 119.481 73.2416 119.252 73.2531 119.023L73.7016 108.569C73.7288 108.093 73.9336 107.646 74.2748 107.317C74.6159 106.988 75.0681 106.802 75.5401 106.796H85.9075C86.1349 106.795 86.3601 106.841 86.5693 106.931C86.7785 107.02 86.9673 107.152 87.1243 107.318C87.2813 107.484 87.403 107.681 87.4822 107.896C87.5613 108.111 87.5962 108.34 87.5846 108.569L87.1362 119.023C87.1079 119.498 86.9028 119.945 86.5618 120.273C86.2209 120.602 85.7693 120.789 85.2976 120.796Z" fill="#407BFF"/>
<path d="M101.123 120.796H90.7552C90.5276 120.798 90.3021 120.752 90.0926 120.663C89.8831 120.573 89.694 120.441 89.5369 120.275C89.3798 120.109 89.258 119.912 89.1791 119.697C89.1002 119.482 89.0659 119.253 89.0781 119.023L89.5265 108.569C89.5537 108.093 89.7585 107.646 90.0997 107.317C90.4409 106.988 90.893 106.802 91.365 106.796H101.746C101.973 106.795 102.199 106.841 102.408 106.931C102.618 107.02 102.807 107.152 102.964 107.318C103.122 107.484 103.244 107.68 103.323 107.895C103.403 108.11 103.438 108.339 103.427 108.569L102.957 119.023C102.931 119.498 102.727 119.945 102.386 120.274C102.046 120.603 101.594 120.79 101.123 120.796Z" fill="#407BFF"/>
<path d="M116.943 120.796H106.58C106.352 120.797 106.127 120.751 105.918 120.661C105.708 120.572 105.519 120.44 105.362 120.274C105.204 120.108 105.082 119.912 105.003 119.697C104.923 119.482 104.887 119.253 104.898 119.023L105.347 108.569C105.374 108.093 105.579 107.646 105.92 107.317C106.261 106.988 106.713 106.802 107.185 106.796H117.548C117.776 106.794 118.001 106.84 118.211 106.929C118.42 107.019 118.61 107.151 118.767 107.317C118.924 107.483 119.045 107.68 119.124 107.895C119.203 108.11 119.238 108.339 119.225 108.569L118.777 119.023C118.75 119.498 118.546 119.944 118.205 120.273C117.865 120.602 117.414 120.789 116.943 120.796Z" fill="#407BFF"/>
<path d="M132.768 120.796H122.418C122.19 120.798 121.965 120.752 121.755 120.663C121.545 120.573 121.356 120.441 121.198 120.275C121.041 120.109 120.919 119.913 120.839 119.697C120.76 119.482 120.725 119.253 120.737 119.023L121.185 108.569C121.211 108.094 121.415 107.647 121.755 107.318C122.096 106.988 122.547 106.802 123.019 106.796H133.386C133.614 106.795 133.839 106.841 134.048 106.931C134.257 107.02 134.446 107.152 134.603 107.318C134.76 107.484 134.882 107.681 134.961 107.896C135.04 108.111 135.075 108.34 135.063 108.569L134.615 119.023C134.588 119.5 134.382 119.949 134.039 120.278C133.696 120.607 133.241 120.792 132.768 120.796Z" fill="#407BFF"/>
<path d="M148.592 120.796H138.225C137.997 120.797 137.772 120.751 137.563 120.661C137.354 120.571 137.165 120.44 137.008 120.274C136.851 120.108 136.729 119.911 136.65 119.696C136.571 119.481 136.536 119.252 136.548 119.023L136.996 108.569C137.023 108.093 137.228 107.646 137.569 107.317C137.91 106.988 138.363 106.802 138.835 106.796H149.197C149.425 106.794 149.651 106.84 149.861 106.929C150.07 107.019 150.26 107.151 150.417 107.317C150.575 107.483 150.697 107.679 150.776 107.895C150.856 108.11 150.891 108.339 150.879 108.569L150.431 119.023C150.402 119.498 150.197 119.945 149.856 120.274C149.515 120.602 149.064 120.789 148.592 120.796Z" fill="#407BFF"/>
<path d="M164.412 120.796H154.049C153.822 120.798 153.596 120.752 153.387 120.663C153.177 120.573 152.988 120.441 152.831 120.275C152.674 120.109 152.552 119.912 152.473 119.697C152.394 119.482 152.36 119.253 152.372 119.023L152.82 108.569C152.848 108.093 153.052 107.646 153.394 107.317C153.735 106.988 154.187 106.802 154.659 106.796H165.022C165.249 106.795 165.475 106.841 165.684 106.931C165.894 107.02 166.083 107.152 166.24 107.318C166.398 107.484 166.52 107.68 166.599 107.895C166.679 108.11 166.714 108.339 166.703 108.569L166.233 119.023C166.207 119.496 166.005 119.941 165.667 120.27C165.33 120.599 164.881 120.786 164.412 120.796Z" fill="#407BFF"/>
<g opacity="0.8">
<path d="M85.2976 120.796H74.9302C74.7029 120.797 74.4777 120.751 74.2685 120.661C74.0592 120.571 73.8704 120.44 73.7134 120.274C73.5564 120.108 73.4347 119.911 73.3555 119.696C73.2764 119.481 73.2416 119.252 73.2531 119.023L73.7016 108.569C73.7288 108.093 73.9336 107.646 74.2748 107.317C74.6159 106.988 75.0681 106.802 75.5401 106.796H85.9075C86.1349 106.795 86.3601 106.841 86.5693 106.931C86.7785 107.02 86.9673 107.152 87.1243 107.318C87.2813 107.484 87.403 107.681 87.4822 107.896C87.5613 108.111 87.5962 108.34 87.5846 108.569L87.1362 119.023C87.1079 119.498 86.9028 119.945 86.5618 120.273C86.2209 120.602 85.7693 120.789 85.2976 120.796Z" fill="#FAFAFA"/>
<path d="M101.122 120.796H90.7547C90.5271 120.798 90.3016 120.752 90.0921 120.663C89.8826 120.573 89.6935 120.441 89.5364 120.275C89.3793 120.109 89.2576 119.912 89.1787 119.697C89.0998 119.482 89.0654 119.253 89.0776 119.023L89.526 108.569C89.5532 108.093 89.7581 107.646 90.0992 107.317C90.4404 106.988 90.8926 106.802 91.3645 106.796H101.745C101.973 106.795 102.198 106.841 102.408 106.931C102.617 107.02 102.806 107.152 102.964 107.318C103.121 107.484 103.243 107.68 103.323 107.895C103.403 108.11 103.438 108.339 103.427 108.569L102.956 119.023C102.93 119.498 102.726 119.945 102.386 120.274C102.045 120.603 101.594 120.79 101.122 120.796Z" fill="#FAFAFA"/>
<path d="M116.942 120.796H106.58C106.352 120.797 106.127 120.751 105.917 120.661C105.708 120.572 105.519 120.44 105.361 120.274C105.204 120.108 105.082 119.912 105.002 119.697C104.922 119.482 104.887 119.253 104.898 119.023L105.346 108.569C105.374 108.093 105.578 107.646 105.92 107.317C106.261 106.988 106.713 106.802 107.185 106.796H117.548C117.775 106.794 118.001 106.84 118.21 106.929C118.42 107.019 118.609 107.151 118.766 107.317C118.923 107.483 119.045 107.68 119.124 107.895C119.203 108.11 119.237 108.339 119.225 108.569L118.776 119.023C118.749 119.498 118.545 119.944 118.205 120.273C117.865 120.602 117.414 120.789 116.942 120.796Z" fill="#FAFAFA"/>
<path d="M132.767 120.796H122.418C122.19 120.798 121.964 120.752 121.754 120.663C121.545 120.573 121.355 120.441 121.198 120.275C121.04 120.109 120.918 119.913 120.839 119.697C120.759 119.482 120.724 119.253 120.736 119.023L121.184 108.569C121.211 108.094 121.414 107.647 121.755 107.318C122.095 106.988 122.547 106.802 123.019 106.796H133.386C133.613 106.795 133.838 106.841 134.048 106.931C134.257 107.02 134.446 107.152 134.603 107.318C134.76 107.484 134.881 107.681 134.961 107.896C135.04 108.111 135.075 108.34 135.063 108.569L134.615 119.023C134.587 119.5 134.381 119.949 134.038 120.278C133.695 120.607 133.241 120.792 132.767 120.796Z" fill="#FAFAFA"/>
<path d="M148.592 120.796H138.224C137.997 120.797 137.772 120.751 137.562 120.661C137.353 120.571 137.164 120.44 137.007 120.274C136.85 120.108 136.729 119.911 136.649 119.696C136.57 119.481 136.536 119.252 136.547 119.023L136.996 108.569C137.023 108.093 137.228 107.646 137.569 107.317C137.91 106.988 138.362 106.802 138.834 106.796H149.197C149.425 106.794 149.65 106.84 149.86 106.929C150.07 107.019 150.259 107.151 150.417 107.317C150.574 107.483 150.696 107.679 150.776 107.895C150.855 108.11 150.89 108.339 150.879 108.569L150.43 119.023C150.402 119.498 150.197 119.945 149.856 120.274C149.515 120.602 149.063 120.789 148.592 120.796Z" fill="#FAFAFA"/>
<path d="M164.412 120.796H154.049C153.822 120.798 153.596 120.752 153.387 120.663C153.177 120.573 152.988 120.441 152.831 120.275C152.674 120.109 152.552 119.912 152.473 119.697C152.394 119.482 152.36 119.253 152.372 119.023L152.82 108.569C152.848 108.093 153.052 107.646 153.394 107.317C153.735 106.988 154.187 106.802 154.659 106.796H165.022C165.249 106.795 165.475 106.841 165.684 106.931C165.894 107.02 166.083 107.152 166.24 107.318C166.398 107.484 166.52 107.68 166.599 107.895C166.679 108.11 166.714 108.339 166.703 108.569L166.233 119.023C166.207 119.496 166.005 119.941 165.667 120.27C165.33 120.599 164.881 120.786 164.412 120.796Z" fill="#FAFAFA"/>
</g>
<path d="M84.5716 137.017H74.2042C73.9768 137.018 73.7516 136.972 73.5424 136.882C73.3332 136.792 73.1443 136.66 72.9873 136.494C72.8304 136.328 72.7086 136.132 72.6295 135.917C72.5503 135.702 72.5155 135.473 72.5271 135.244L72.9755 124.789C73.0037 124.314 73.2089 123.868 73.5498 123.539C73.8908 123.21 74.3423 123.024 74.814 123.017H85.1994C85.4267 123.016 85.6519 123.062 85.8611 123.151C86.0703 123.241 86.2592 123.373 86.4162 123.539C86.5731 123.705 86.6949 123.901 86.774 124.116C86.8532 124.331 86.888 124.56 86.8764 124.789L86.428 135.244C86.3996 135.722 86.1919 136.171 85.8471 136.5C85.5024 136.83 85.0463 137.014 84.5716 137.017Z" fill="#407BFF"/>
<path d="M100.396 137.017H90.0289C89.8015 137.018 89.5763 136.972 89.3671 136.882C89.1579 136.792 88.969 136.66 88.812 136.494C88.6551 136.328 88.5333 136.132 88.4542 135.917C88.375 135.702 88.3402 135.473 88.3518 135.244L88.8002 124.789C88.8274 124.314 89.0322 123.867 89.3734 123.538C89.7146 123.209 90.1667 123.023 90.6387 123.017H101.002C101.231 123.015 101.459 123.061 101.67 123.151C101.881 123.242 102.072 123.375 102.23 123.543C102.388 123.711 102.51 123.91 102.589 124.127C102.668 124.345 102.701 124.576 102.688 124.807L102.239 135.244C102.213 135.72 102.008 136.169 101.666 136.498C101.323 136.827 100.869 137.013 100.396 137.017Z" fill="#407BFF"/>
<path d="M116.216 137.017H105.853C105.626 137.018 105.4 136.973 105.191 136.883C104.981 136.794 104.792 136.662 104.635 136.496C104.478 136.33 104.356 136.133 104.277 135.918C104.198 135.703 104.164 135.473 104.176 135.244L104.625 124.789C104.652 124.314 104.857 123.867 105.198 123.538C105.539 123.209 105.991 123.023 106.463 123.017H116.826C117.054 123.015 117.279 123.06 117.489 123.15C117.698 123.24 117.887 123.372 118.044 123.538C118.201 123.704 118.323 123.9 118.402 124.116C118.481 124.331 118.515 124.56 118.503 124.789L118.055 135.244C118.028 135.719 117.823 136.166 117.482 136.495C117.14 136.824 116.688 137.011 116.216 137.017Z" fill="#407BFF"/>
<path d="M132.041 137.017H121.678C121.451 137.018 121.225 136.972 121.016 136.882C120.806 136.792 120.617 136.661 120.46 136.495C120.303 136.329 120.18 136.133 120.101 135.918C120.021 135.703 119.986 135.474 119.997 135.244L120.445 124.789C120.471 124.315 120.675 123.868 121.015 123.539C121.356 123.209 121.807 123.023 122.279 123.017H132.646C132.877 123.013 133.106 123.057 133.32 123.146C133.533 123.236 133.725 123.369 133.885 123.537C134.045 123.705 134.168 123.905 134.247 124.124C134.327 124.342 134.36 124.575 134.346 124.808L133.898 135.262C133.866 135.738 133.656 136.183 133.312 136.508C132.967 136.834 132.513 137.016 132.041 137.017Z" fill="#407BFF"/>
<path d="M147.866 137.016H137.498C137.271 137.017 137.046 136.971 136.836 136.881C136.627 136.792 136.438 136.66 136.281 136.494C136.124 136.328 136.003 136.132 135.923 135.917C135.844 135.702 135.809 135.473 135.821 135.244L136.269 124.789C136.293 124.31 136.497 123.858 136.84 123.526C137.182 123.193 137.637 123.004 138.112 122.998H148.48C148.707 122.997 148.932 123.043 149.142 123.133C149.351 123.223 149.54 123.355 149.697 123.52C149.854 123.686 149.975 123.883 150.055 124.098C150.134 124.313 150.169 124.542 150.157 124.771L149.708 135.226C149.685 135.704 149.481 136.156 149.138 136.489C148.796 136.821 148.341 137.01 147.866 137.016Z" fill="#407BFF"/>
<path d="M163.673 137.017H153.323C153.095 137.018 152.87 136.973 152.66 136.883C152.451 136.794 152.262 136.662 152.105 136.496C151.948 136.33 151.826 136.133 151.747 135.918C151.668 135.703 151.634 135.473 151.646 135.244L152.094 124.789C152.122 124.314 152.326 123.867 152.668 123.538C153.009 123.209 153.461 123.023 153.933 123.017H164.296C164.523 123.016 164.749 123.062 164.958 123.151C165.168 123.241 165.357 123.373 165.514 123.539C165.671 123.705 165.794 123.901 165.873 124.116C165.953 124.331 165.988 124.56 165.977 124.789L165.507 135.244C165.48 135.719 165.277 136.166 164.936 136.495C164.596 136.824 164.144 137.011 163.673 137.017Z" fill="#407BFF"/>
<g opacity="0.8">
<path d="M84.5716 137.017H74.2042C73.9768 137.018 73.7516 136.972 73.5424 136.882C73.3332 136.792 73.1443 136.66 72.9873 136.494C72.8304 136.328 72.7086 136.132 72.6295 135.917C72.5503 135.702 72.5155 135.473 72.5271 135.244L72.9755 124.789C73.0037 124.314 73.2089 123.868 73.5498 123.539C73.8908 123.21 74.3423 123.024 74.814 123.017H85.1994C85.4267 123.016 85.6519 123.062 85.8611 123.151C86.0703 123.241 86.2592 123.373 86.4162 123.539C86.5731 123.705 86.6949 123.901 86.774 124.116C86.8532 124.331 86.888 124.56 86.8764 124.789L86.428 135.244C86.3996 135.722 86.1919 136.171 85.8471 136.5C85.5024 136.83 85.0463 137.014 84.5716 137.017Z" fill="#FAFAFA"/>
<path d="M100.396 137.016H90.0289C89.8015 137.017 89.5763 136.971 89.3671 136.881C89.1579 136.791 88.969 136.659 88.812 136.493C88.6551 136.327 88.5333 136.131 88.4542 135.916C88.375 135.701 88.3402 135.472 88.3518 135.243L88.8002 124.788C88.8274 124.313 89.0322 123.866 89.3734 123.537C89.7146 123.208 90.1667 123.022 90.6387 123.016H101.002C101.231 123.014 101.459 123.06 101.67 123.151C101.881 123.241 102.072 123.374 102.23 123.542C102.388 123.71 102.51 123.909 102.589 124.126C102.668 124.344 102.701 124.575 102.688 124.806L102.239 135.243C102.213 135.719 102.008 136.168 101.666 136.497C101.323 136.826 100.869 137.012 100.396 137.016Z" fill="#FAFAFA"/>
<path d="M116.216 137.016H105.853C105.626 137.017 105.4 136.972 105.191 136.882C104.981 136.793 104.792 136.661 104.635 136.495C104.478 136.329 104.356 136.132 104.277 135.917C104.198 135.702 104.164 135.472 104.176 135.243L104.625 124.788C104.652 124.313 104.857 123.866 105.198 123.537C105.539 123.208 105.991 123.022 106.463 123.016H116.826C117.054 123.014 117.279 123.059 117.489 123.149C117.698 123.239 117.887 123.371 118.044 123.537C118.201 123.703 118.323 123.899 118.402 124.115C118.481 124.33 118.515 124.559 118.503 124.788L118.055 135.243C118.028 135.718 117.823 136.165 117.482 136.494C117.14 136.823 116.688 137.01 116.216 137.016Z" fill="#FAFAFA"/>
<path d="M132.041 137.016H121.678C121.451 137.017 121.225 136.971 121.016 136.881C120.806 136.792 120.617 136.66 120.46 136.494C120.303 136.328 120.18 136.132 120.101 135.917C120.021 135.702 119.986 135.473 119.997 135.243L120.445 124.789C120.471 124.314 120.675 123.867 121.015 123.538C121.356 123.208 121.807 123.022 122.279 123.016H132.646C132.877 123.012 133.106 123.056 133.32 123.145C133.533 123.235 133.725 123.368 133.885 123.536C134.045 123.704 134.168 123.904 134.247 124.123C134.327 124.341 134.36 124.574 134.346 124.807L133.898 135.261C133.866 135.737 133.656 136.182 133.312 136.507C132.967 136.833 132.513 137.015 132.041 137.016Z" fill="#FAFAFA"/>
<path d="M147.866 137.016H137.498C137.271 137.017 137.046 136.971 136.836 136.881C136.627 136.792 136.438 136.66 136.281 136.494C136.124 136.328 136.003 136.132 135.923 135.917C135.844 135.702 135.809 135.473 135.821 135.244L136.269 124.789C136.293 124.31 136.497 123.858 136.84 123.526C137.182 123.193 137.637 123.004 138.112 122.998H148.48C148.707 122.997 148.932 123.043 149.142 123.133C149.351 123.223 149.54 123.355 149.697 123.52C149.854 123.686 149.975 123.883 150.055 124.098C150.134 124.313 150.169 124.542 150.157 124.771L149.708 135.226C149.685 135.704 149.481 136.156 149.138 136.489C148.796 136.821 148.341 137.01 147.866 137.016Z" fill="#FAFAFA"/>
<path d="M163.673 137.017H153.323C153.095 137.018 152.87 136.973 152.66 136.883C152.451 136.794 152.262 136.662 152.105 136.496C151.948 136.33 151.826 136.133 151.747 135.918C151.668 135.703 151.634 135.473 151.646 135.244L152.094 124.789C152.122 124.314 152.326 123.867 152.668 123.538C153.009 123.209 153.461 123.023 153.933 123.017H164.296C164.523 123.016 164.749 123.062 164.958 123.151C165.168 123.241 165.357 123.373 165.514 123.539C165.671 123.705 165.794 123.901 165.873 124.116C165.953 124.331 165.988 124.56 165.977 124.789L165.507 135.244C165.48 135.719 165.277 136.166 164.936 136.495C164.596 136.824 164.144 137.011 163.673 137.017Z" fill="#FAFAFA"/>
</g>
<path d="M83.8537 153.233H73.4774C73.2498 153.234 73.0243 153.189 72.8148 153.099C72.6053 153.01 72.4161 152.878 72.259 152.712C72.102 152.546 71.9802 152.349 71.9013 152.134C71.8224 151.919 71.788 151.689 71.8003 151.46L72.2487 141.01C72.2759 140.535 72.4807 140.088 72.8219 139.759C73.1631 139.43 73.6152 139.243 74.0872 139.237H84.4546C84.6822 139.236 84.9077 139.281 85.1172 139.371C85.3267 139.46 85.5158 139.592 85.6729 139.758C85.83 139.924 85.9517 140.121 86.0306 140.336C86.1095 140.552 86.1439 140.781 86.1317 141.01L85.6833 151.46C85.6572 151.934 85.454 152.381 85.1145 152.71C84.775 153.039 84.3245 153.226 83.8537 153.233Z" fill="#407BFF"/>
<path d="M99.6695 153.233H89.3021C89.0745 153.235 88.849 153.189 88.6395 153.1C88.43 153.01 88.2408 152.878 88.0838 152.712C87.9267 152.546 87.8049 152.349 87.726 152.134C87.6471 151.919 87.6127 151.689 87.625 151.46L88.0734 141.01C88.0995 140.534 88.304 140.087 88.6454 139.757C88.9868 139.428 89.4396 139.242 89.9119 139.237H100.275C100.503 139.235 100.729 139.28 100.939 139.369C101.149 139.459 101.339 139.591 101.496 139.757C101.654 139.923 101.776 140.12 101.855 140.335C101.934 140.551 101.969 140.78 101.956 141.01L101.508 151.46C101.483 151.936 101.279 152.385 100.937 152.714C100.595 153.043 100.142 153.229 99.6695 153.233Z" fill="#407BFF"/>
<path d="M115.49 153.233H105.127C104.899 153.234 104.674 153.189 104.464 153.099C104.255 153.01 104.066 152.878 103.908 152.712C103.751 152.546 103.63 152.349 103.551 152.134C103.472 151.919 103.437 151.689 103.45 151.46L103.898 141.01C103.924 140.534 104.129 140.087 104.47 139.757C104.812 139.428 105.264 139.242 105.737 139.237H116.14C116.368 139.236 116.593 139.281 116.803 139.371C117.013 139.46 117.202 139.592 117.36 139.758C117.517 139.924 117.639 140.121 117.719 140.336C117.798 140.551 117.833 140.781 117.821 141.01L117.351 151.46C117.324 151.94 117.117 152.391 116.77 152.721C116.424 153.05 115.966 153.234 115.49 153.233Z" fill="#407BFF"/>
<path d="M131.314 153.233H120.951C120.724 153.234 120.498 153.189 120.288 153.1C120.078 153.01 119.889 152.878 119.732 152.712C119.574 152.546 119.452 152.35 119.373 152.134C119.293 151.919 119.258 151.69 119.27 151.46L119.718 141.01C119.743 140.535 119.947 140.087 120.287 139.758C120.628 139.429 121.08 139.242 121.552 139.237H131.92C132.147 139.236 132.373 139.281 132.582 139.371C132.792 139.46 132.981 139.592 133.138 139.758C133.295 139.924 133.417 140.121 133.496 140.336C133.575 140.552 133.609 140.781 133.597 141.01L133.148 151.46C133.122 151.935 132.918 152.382 132.578 152.711C132.237 153.04 131.786 153.227 131.314 153.233Z" fill="#407BFF"/>
<path d="M147.139 153.233H136.767C136.54 153.234 136.314 153.189 136.105 153.099C135.895 153.01 135.706 152.878 135.549 152.712C135.392 152.546 135.27 152.349 135.191 152.134C135.112 151.919 135.078 151.689 135.09 151.46L135.539 141.01C135.566 140.535 135.771 140.088 136.112 139.759C136.453 139.43 136.905 139.243 137.377 139.237H147.745C147.972 139.236 148.198 139.281 148.407 139.371C148.617 139.46 148.806 139.592 148.963 139.758C149.12 139.924 149.242 140.121 149.321 140.336C149.4 140.552 149.434 140.781 149.422 141.01L148.973 151.46C148.946 151.935 148.742 152.381 148.402 152.71C148.062 153.039 147.61 153.226 147.139 153.233Z" fill="#407BFF"/>
<path d="M162.964 153.233H152.596C152.369 153.234 152.143 153.189 151.934 153.099C151.724 153.01 151.535 152.878 151.378 152.712C151.221 152.546 151.099 152.349 151.02 152.134C150.942 151.919 150.907 151.689 150.919 151.46L151.368 141.01C151.394 140.534 151.598 140.087 151.94 139.757C152.281 139.428 152.734 139.242 153.206 139.237H163.569C163.797 139.236 164.023 139.281 164.232 139.371C164.442 139.46 164.632 139.592 164.789 139.758C164.946 139.924 165.069 140.121 165.148 140.336C165.227 140.551 165.262 140.781 165.251 141.01L164.78 151.46C164.755 151.932 164.554 152.378 164.217 152.706C163.88 153.035 163.433 153.223 162.964 153.233Z" fill="#407BFF"/>
<g opacity="0.8">
<path d="M83.8537 153.233H73.4774C73.2498 153.234 73.0243 153.189 72.8148 153.099C72.6053 153.01 72.4161 152.878 72.259 152.712C72.102 152.546 71.9802 152.349 71.9013 152.134C71.8224 151.919 71.788 151.689 71.8003 151.46L72.2487 141.01C72.2759 140.535 72.4807 140.088 72.8219 139.759C73.1631 139.43 73.6152 139.243 74.0872 139.237H84.4546C84.6822 139.236 84.9077 139.281 85.1172 139.371C85.3267 139.46 85.5158 139.592 85.6729 139.758C85.83 139.924 85.9517 140.121 86.0306 140.336C86.1095 140.552 86.1439 140.781 86.1317 141.01L85.6833 151.46C85.6572 151.934 85.454 152.381 85.1145 152.71C84.775 153.039 84.3245 153.226 83.8537 153.233Z" fill="#FAFAFA"/>
<path d="M99.6695 153.233H89.3021C89.0745 153.235 88.849 153.189 88.6395 153.1C88.43 153.01 88.2408 152.878 88.0838 152.712C87.9267 152.546 87.8049 152.349 87.726 152.134C87.6471 151.919 87.6127 151.689 87.625 151.46L88.0734 141.01C88.0995 140.534 88.304 140.087 88.6454 139.757C88.9868 139.428 89.4396 139.242 89.9119 139.237H100.275C100.503 139.235 100.729 139.28 100.939 139.369C101.149 139.459 101.339 139.591 101.496 139.757C101.654 139.923 101.776 140.12 101.855 140.335C101.934 140.551 101.969 140.78 101.956 141.01L101.508 151.46C101.483 151.936 101.279 152.385 100.937 152.714C100.595 153.043 100.142 153.229 99.6695 153.233Z" fill="#FAFAFA"/>
<path d="M115.49 153.233H105.127C104.899 153.234 104.674 153.189 104.464 153.099C104.255 153.01 104.066 152.878 103.908 152.712C103.751 152.546 103.63 152.349 103.551 152.134C103.472 151.919 103.437 151.689 103.45 151.46L103.898 141.01C103.924 140.534 104.129 140.087 104.47 139.757C104.812 139.428 105.264 139.242 105.737 139.237H116.14C116.368 139.236 116.593 139.281 116.803 139.371C117.013 139.46 117.202 139.592 117.36 139.758C117.517 139.924 117.639 140.121 117.719 140.336C117.798 140.551 117.833 140.781 117.821 141.01L117.351 151.46C117.324 151.94 117.117 152.391 116.77 152.721C116.424 153.05 115.966 153.234 115.49 153.233Z" fill="#FAFAFA"/>
<path d="M131.314 153.233H120.951C120.724 153.234 120.498 153.189 120.288 153.1C120.078 153.01 119.889 152.878 119.732 152.712C119.574 152.546 119.452 152.35 119.373 152.134C119.293 151.919 119.258 151.69 119.27 151.46L119.718 141.01C119.743 140.535 119.947 140.087 120.287 139.758C120.628 139.429 121.08 139.242 121.552 139.237H131.92C132.147 139.236 132.373 139.281 132.582 139.371C132.792 139.46 132.981 139.592 133.138 139.758C133.295 139.924 133.417 140.121 133.496 140.336C133.575 140.552 133.609 140.781 133.597 141.01L133.148 151.46C133.122 151.935 132.918 152.382 132.578 152.711C132.237 153.04 131.786 153.227 131.314 153.233Z" fill="#FAFAFA"/>
<path d="M147.139 153.233H136.767C136.539 153.234 136.314 153.189 136.104 153.099C135.895 153.01 135.706 152.878 135.549 152.712C135.391 152.546 135.27 152.349 135.191 152.134C135.112 151.919 135.078 151.689 135.09 151.46L135.538 141.01C135.565 140.535 135.77 140.088 136.111 139.759C136.453 139.43 136.905 139.243 137.377 139.237H147.744C147.972 139.236 148.197 139.281 148.407 139.371C148.616 139.46 148.805 139.592 148.962 139.758C149.12 139.924 149.241 140.121 149.32 140.336C149.399 140.552 149.433 140.781 149.421 141.01L148.973 151.46C148.946 151.935 148.741 152.381 148.401 152.71C148.061 153.039 147.61 153.226 147.139 153.233Z" fill="#FAFAFA"/>
<path d="M162.963 153.233H152.596C152.368 153.234 152.143 153.189 151.933 153.099C151.724 153.01 151.535 152.878 151.378 152.712C151.221 152.546 151.099 152.349 151.02 152.134C150.941 151.919 150.907 151.689 150.919 151.46L151.367 141.01C151.393 140.534 151.598 140.087 151.939 139.757C152.281 139.428 152.734 139.242 153.206 139.237H163.569C163.797 139.236 164.022 139.281 164.232 139.371C164.442 139.46 164.631 139.592 164.789 139.758C164.946 139.924 165.068 140.121 165.148 140.336C165.227 140.551 165.262 140.781 165.25 141.01L164.78 151.46C164.755 151.932 164.554 152.378 164.217 152.706C163.88 153.035 163.432 153.223 162.963 153.233Z" fill="#FAFAFA"/>
</g>
<path d="M80.917 98.3265C77.0965 98.3265 74.1011 93.8452 74.1011 88.1248C74.1011 82.4045 77.0965 77.9277 80.917 77.9277C84.7375 77.9277 87.7375 82.409 87.7375 88.1248C87.72 88.3929 87.6022 88.6443 87.4077 88.828C87.2133 89.0116 86.9568 89.1138 86.6904 89.1138C86.424 89.1138 86.1675 89.0116 85.9731 88.828C85.7786 88.6443 85.6608 88.3929 85.6433 88.1248C85.6433 83.743 83.482 80.035 80.917 80.035C78.3521 80.035 76.1907 83.743 76.1907 88.1248C76.1907 92.5066 78.3566 96.2147 80.917 96.2147C81.0603 96.2052 81.204 96.2255 81.3391 96.2743C81.4743 96.3231 81.5981 96.3993 81.7029 96.4983C81.8077 96.5973 81.8912 96.7169 81.9483 96.8497C82.0054 96.9825 82.0349 97.1258 82.0349 97.2706C82.0349 97.4153 82.0054 97.5586 81.9483 97.6914C81.8912 97.8243 81.8077 97.9439 81.7029 98.0428C81.5981 98.1418 81.4743 98.2181 81.3391 98.2668C81.204 98.3156 81.0603 98.3359 80.917 98.3265Z" fill="#407BFF"/>
<path d="M96.7417 98.3264C92.9212 98.3264 89.9258 93.8452 89.9258 88.1248C89.9258 82.4045 92.9212 77.9277 96.7417 77.9277C100.562 77.9277 103.585 82.409 103.585 88.1248C103.567 88.3929 103.449 88.6443 103.255 88.828C103.06 89.0116 102.804 89.1138 102.538 89.1138C102.271 89.1138 102.015 89.0116 101.82 88.828C101.626 88.6443 101.508 88.3929 101.49 88.1248C101.49 83.743 99.3291 80.035 96.7641 80.035C94.1992 80.035 92.0378 83.743 92.0378 88.1248C92.0378 92.5066 94.2037 96.2147 96.7641 96.2147C97.03 96.2322 97.2793 96.3511 97.4614 96.5472C97.6435 96.7433 97.7449 97.0019 97.7449 97.2706C97.7449 97.5392 97.6435 97.7978 97.4614 97.9939C97.2793 98.19 97.03 98.3089 96.7641 98.3264H96.7417Z" fill="#407BFF"/>
<path d="M112.553 98.3264C108.728 98.3264 105.732 93.8452 105.732 88.1248C105.732 82.4045 108.728 77.9277 112.553 77.9277C116.378 77.9277 119.369 82.409 119.369 88.1248C119.369 88.4043 119.259 88.6723 119.063 88.8699C118.867 89.0674 118.601 89.1785 118.324 89.1785C118.047 89.1785 117.781 89.0674 117.585 88.8699C117.389 88.6723 117.279 88.4043 117.279 88.1248C117.279 83.743 115.113 80.035 112.553 80.035C109.992 80.035 107.827 83.743 107.827 88.1248C107.827 92.5066 109.992 96.2147 112.553 96.2147C112.819 96.2322 113.068 96.3511 113.25 96.5472C113.432 96.7433 113.534 97.0019 113.534 97.2706C113.534 97.5392 113.432 97.7978 113.25 97.9939C113.068 98.19 112.819 98.3089 112.553 98.3264Z" fill="#407BFF"/>
<path d="M128.391 98.3264C124.566 98.3264 121.57 93.8452 121.57 88.1248C121.57 82.4045 124.566 77.9277 128.391 77.9277C132.216 77.9277 135.207 82.409 135.207 88.1248C135.207 88.4043 135.097 88.6723 134.901 88.8699C134.705 89.0674 134.439 89.1785 134.162 89.1785C133.885 89.1785 133.619 89.0674 133.423 88.8699C133.227 88.6723 133.117 88.4043 133.117 88.1248C133.117 83.743 130.951 80.035 128.391 80.035C125.83 80.035 123.664 83.743 123.664 88.1248C123.664 92.5066 125.826 96.2147 128.391 96.2147C128.657 96.2322 128.906 96.3511 129.088 96.5472C129.27 96.7433 129.371 97.0019 129.371 97.2706C129.371 97.5392 129.27 97.7978 129.088 97.9939C128.906 98.19 128.657 98.3089 128.391 98.3264Z" fill="#407BFF"/>
<path d="M144.211 98.3265C140.39 98.3265 137.395 93.8452 137.395 88.1248C137.395 82.4045 140.39 77.9277 144.211 77.9277C148.031 77.9277 151.031 82.409 151.031 88.1248C151.014 88.3929 150.896 88.6443 150.702 88.828C150.507 89.0116 150.251 89.1138 149.984 89.1138C149.718 89.1138 149.461 89.0116 149.267 88.828C149.073 88.6443 148.955 88.3929 148.937 88.1248C148.937 83.743 146.776 80.035 144.211 80.035C141.646 80.035 139.485 83.743 139.485 88.1248C139.485 92.5066 141.651 96.2147 144.211 96.2147C144.354 96.2052 144.498 96.2255 144.633 96.2743C144.768 96.3231 144.892 96.3993 144.997 96.4983C145.102 96.5973 145.185 96.7169 145.242 96.8497C145.299 96.9825 145.329 97.1258 145.329 97.2706C145.329 97.4153 145.299 97.5586 145.242 97.6914C145.185 97.8243 145.102 97.9439 144.997 98.0428C144.892 98.1418 144.768 98.2181 144.633 98.2668C144.498 98.3156 144.354 98.3359 144.211 98.3265Z" fill="#407BFF"/>
<path d="M160.036 98.3264C156.215 98.3264 153.22 93.8452 153.22 88.1248C153.22 82.4045 156.215 77.9277 160.036 77.9277C163.856 77.9277 166.856 82.409 166.856 88.1248C166.839 88.3929 166.721 88.6443 166.526 88.828C166.332 89.0116 166.075 89.1138 165.809 89.1138C165.543 89.1138 165.286 89.0116 165.092 88.828C164.897 88.6443 164.779 88.3929 164.762 88.1248C164.762 83.743 162.596 80.035 160.036 80.035C157.475 80.035 155.309 83.743 155.309 88.1248C155.309 92.5066 157.475 96.2147 160.036 96.2147C160.302 96.2322 160.551 96.3511 160.733 96.5472C160.915 96.7433 161.016 97.0019 161.016 97.2706C161.016 97.5392 160.915 97.7978 160.733 97.9939C160.551 98.19 160.302 98.3089 160.036 98.3264Z" fill="#407BFF"/>
<g opacity="0.3">
<path d="M80.917 98.3265C77.0965 98.3265 74.1011 93.8452 74.1011 88.1248C74.1011 82.4045 77.0965 77.9277 80.917 77.9277C84.7375 77.9277 87.7375 82.409 87.7375 88.1248C87.72 88.3929 87.6022 88.6443 87.4077 88.828C87.2133 89.0116 86.9568 89.1138 86.6904 89.1138C86.424 89.1138 86.1675 89.0116 85.9731 88.828C85.7786 88.6443 85.6608 88.3929 85.6433 88.1248C85.6433 83.743 83.482 80.035 80.917 80.035C78.3521 80.035 76.1907 83.743 76.1907 88.1248C76.1907 92.5066 78.3566 96.2147 80.917 96.2147C81.0603 96.2052 81.204 96.2255 81.3391 96.2743C81.4743 96.3231 81.5981 96.3993 81.7029 96.4983C81.8077 96.5973 81.8912 96.7169 81.9483 96.8497C82.0054 96.9825 82.0349 97.1258 82.0349 97.2706C82.0349 97.4153 82.0054 97.5586 81.9483 97.6914C81.8912 97.8243 81.8077 97.9439 81.7029 98.0428C81.5981 98.1418 81.4743 98.2181 81.3391 98.2668C81.204 98.3156 81.0603 98.3359 80.917 98.3265Z" fill="black"/>
<path d="M96.7417 98.3264C92.9212 98.3264 89.9258 93.8452 89.9258 88.1248C89.9258 82.4045 92.9212 77.9277 96.7417 77.9277C100.562 77.9277 103.585 82.409 103.585 88.1248C103.567 88.3929 103.449 88.6443 103.255 88.828C103.06 89.0116 102.804 89.1138 102.538 89.1138C102.271 89.1138 102.015 89.0116 101.82 88.828C101.626 88.6443 101.508 88.3929 101.49 88.1248C101.49 83.743 99.3291 80.035 96.7641 80.035C94.1992 80.035 92.0378 83.743 92.0378 88.1248C92.0378 92.5066 94.2037 96.2147 96.7641 96.2147C97.03 96.2322 97.2793 96.3511 97.4614 96.5472C97.6435 96.7433 97.7449 97.0019 97.7449 97.2706C97.7449 97.5392 97.6435 97.7978 97.4614 97.9939C97.2793 98.19 97.03 98.3089 96.7641 98.3264H96.7417Z" fill="black"/>
<path d="M112.553 98.3264C108.728 98.3264 105.732 93.8452 105.732 88.1248C105.732 82.4045 108.728 77.9277 112.553 77.9277C116.378 77.9277 119.369 82.409 119.369 88.1248C119.369 88.4043 119.259 88.6723 119.063 88.8699C118.867 89.0674 118.601 89.1785 118.324 89.1785C118.047 89.1785 117.781 89.0674 117.585 88.8699C117.389 88.6723 117.279 88.4043 117.279 88.1248C117.279 83.743 115.113 80.035 112.553 80.035C109.992 80.035 107.827 83.743 107.827 88.1248C107.827 92.5066 109.992 96.2147 112.553 96.2147C112.819 96.2322 113.068 96.3511 113.25 96.5472C113.432 96.7433 113.534 97.0019 113.534 97.2706C113.534 97.5392 113.432 97.7978 113.25 97.9939C113.068 98.19 112.819 98.3089 112.553 98.3264Z" fill="black"/>
<path d="M128.391 98.3264C124.566 98.3264 121.57 93.8452 121.57 88.1248C121.57 82.4045 124.566 77.9277 128.391 77.9277C132.216 77.9277 135.207 82.409 135.207 88.1248C135.207 88.4043 135.097 88.6723 134.901 88.8699C134.705 89.0674 134.439 89.1785 134.162 89.1785C133.885 89.1785 133.619 89.0674 133.423 88.8699C133.227 88.6723 133.117 88.4043 133.117 88.1248C133.117 83.743 130.951 80.035 128.391 80.035C125.83 80.035 123.664 83.743 123.664 88.1248C123.664 92.5066 125.826 96.2147 128.391 96.2147C128.657 96.2322 128.906 96.3511 129.088 96.5472C129.27 96.7433 129.371 97.0019 129.371 97.2706C129.371 97.5392 129.27 97.7978 129.088 97.9939C128.906 98.19 128.657 98.3089 128.391 98.3264Z" fill="black"/>
<path d="M144.211 98.3265C140.39 98.3265 137.395 93.8452 137.395 88.1248C137.395 82.4045 140.39 77.9277 144.211 77.9277C148.031 77.9277 151.031 82.409 151.031 88.1248C151.014 88.3929 150.896 88.6443 150.702 88.828C150.507 89.0116 150.251 89.1138 149.984 89.1138C149.718 89.1138 149.461 89.0116 149.267 88.828C149.073 88.6443 148.955 88.3929 148.937 88.1248C148.937 83.743 146.776 80.035 144.211 80.035C141.646 80.035 139.485 83.743 139.485 88.1248C139.485 92.5066 141.651 96.2147 144.211 96.2147C144.354 96.2052 144.498 96.2255 144.633 96.2743C144.768 96.3231 144.892 96.3993 144.997 96.4983C145.102 96.5973 145.185 96.7169 145.242 96.8497C145.299 96.9825 145.329 97.1258 145.329 97.2706C145.329 97.4153 145.299 97.5586 145.242 97.6914C145.185 97.8243 145.102 97.9439 144.997 98.0428C144.892 98.1418 144.768 98.2181 144.633 98.2668C144.498 98.3156 144.354 98.3359 144.211 98.3265Z" fill="black"/>
<path d="M160.036 98.3264C156.215 98.3264 153.22 93.8452 153.22 88.1248C153.22 82.4045 156.215 77.9277 160.036 77.9277C163.856 77.9277 166.856 82.409 166.856 88.1248C166.839 88.3929 166.721 88.6443 166.526 88.828C166.332 89.0116 166.075 89.1138 165.809 89.1138C165.543 89.1138 165.286 89.0116 165.092 88.828C164.897 88.6443 164.779 88.3929 164.762 88.1248C164.762 83.743 162.596 80.035 160.036 80.035C157.475 80.035 155.309 83.743 155.309 88.1248C155.309 92.5066 157.475 96.2147 160.036 96.2147C160.302 96.2322 160.551 96.3511 160.733 96.5472C160.915 96.7433 161.016 97.0019 161.016 97.2706C161.016 97.5392 160.915 97.7978 160.733 97.9939C160.551 98.19 160.302 98.3089 160.036 98.3264Z" fill="black"/>
</g>
<path d="M129.449 121.38C125.79 120.647 121.682 121.502 120.216 125.391C119.037 128.52 120.548 131.911 123.804 132.739C126.673 133.467 131.624 132.576 132.646 129.239C133.817 125.422 129.059 124.183 126.391 123.957C125.588 123.889 125.593 125.156 126.391 125.223C127.606 125.327 128.996 125.395 130.072 126.069C132.314 127.484 131.391 129.754 129.48 130.84C127.57 131.925 124.642 132.196 122.754 130.993C120.691 129.669 120.624 126.756 121.857 124.857C123.476 122.347 126.431 122.067 129.095 122.596C129.884 122.754 130.22 121.533 129.427 121.375L129.449 121.38Z" fill="#407BFF"/>
<path opacity="0.1" d="M129.449 121.38C125.79 120.647 121.682 121.502 120.216 125.391C119.037 128.52 120.548 131.911 123.804 132.739C126.673 133.467 131.624 132.576 132.646 129.239C133.817 125.422 129.059 124.183 126.391 123.957C125.588 123.889 125.593 125.156 126.391 125.223C127.606 125.327 128.996 125.395 130.072 126.069C132.314 127.484 131.391 129.754 129.48 130.84C127.57 131.925 124.642 132.196 122.754 130.993C120.691 129.669 120.624 126.756 121.857 124.857C123.476 122.347 126.431 122.067 129.095 122.596C129.884 122.754 130.22 121.533 129.427 121.375L129.449 121.38Z" fill="#FAFAFA"/>
<path d="M89.0782 106.814C92.5776 111.492 96.4789 115.85 100.737 119.837C101.329 120.394 102.221 119.498 101.634 118.933C97.4487 115.025 93.612 110.753 90.1679 106.167C89.6881 105.525 88.5984 106.167 89.0872 106.805L89.0782 106.814Z" fill="#407BFF"/>
<path d="M90.3742 119.308C93.0198 114.565 97.652 110.517 102.033 107.42C102.688 106.968 102.064 105.855 101.401 106.326C96.8448 109.554 92.0557 113.724 89.2935 118.666C89.2177 118.81 89.1999 118.978 89.2438 119.135C89.2878 119.292 89.39 119.426 89.5293 119.508C89.6686 119.591 89.8342 119.616 89.9916 119.579C90.1489 119.542 90.286 119.445 90.3742 119.308Z" fill="#407BFF"/>
<g opacity="0.2">
<path d="M89.0782 106.814C92.5776 111.492 96.4789 115.85 100.737 119.837C101.329 120.394 102.221 119.498 101.634 118.933C97.4487 115.025 93.612 110.753 90.1679 106.167C89.6881 105.525 88.5984 106.167 89.0872 106.805L89.0782 106.814Z" fill="black"/>
<path d="M90.3742 119.308C93.0198 114.565 97.652 110.517 102.033 107.42C102.688 106.968 102.064 105.855 101.401 106.326C96.8448 109.554 92.0557 113.724 89.2935 118.666C89.2177 118.81 89.1999 118.978 89.2438 119.135C89.2878 119.292 89.39 119.426 89.5293 119.508C89.6686 119.591 89.8342 119.616 89.9916 119.579C90.1489 119.542 90.286 119.445 90.3742 119.308Z" fill="black"/>
</g>
<path d="M138.951 110.861H147.135C147.292 110.848 147.438 110.776 147.544 110.659C147.651 110.542 147.71 110.389 147.71 110.23C147.71 110.072 147.651 109.919 147.544 109.802C147.438 109.685 147.292 109.613 147.135 109.6H138.951C138.794 109.613 138.648 109.685 138.542 109.802C138.436 109.919 138.376 110.072 138.376 110.23C138.376 110.389 138.436 110.542 138.542 110.659C138.648 110.776 138.794 110.848 138.951 110.861Z" fill="#407BFF"/>
<path d="M138.857 113.209H143.601C143.768 113.209 143.927 113.142 144.045 113.023C144.163 112.904 144.229 112.743 144.229 112.575C144.229 112.408 144.163 112.247 144.045 112.128C143.927 112.009 143.768 111.942 143.601 111.942H138.857C138.69 111.942 138.531 112.009 138.413 112.128C138.295 112.247 138.229 112.408 138.229 112.575C138.229 112.743 138.295 112.904 138.413 113.023C138.531 113.142 138.69 113.209 138.857 113.209Z" fill="#407BFF"/>
<g opacity="0.1">
<path d="M138.951 110.861H147.134C147.291 110.848 147.437 110.776 147.544 110.659C147.65 110.542 147.709 110.389 147.709 110.23C147.709 110.072 147.65 109.919 147.544 109.802C147.437 109.685 147.291 109.613 147.134 109.6H138.951C138.794 109.613 138.648 109.685 138.541 109.802C138.435 109.919 138.376 110.072 138.376 110.23C138.376 110.389 138.435 110.542 138.541 110.659C138.648 110.776 138.794 110.848 138.951 110.861Z" fill="#FAFAFA"/>
<path d="M138.857 113.209H143.601C143.768 113.209 143.927 113.142 144.045 113.023C144.163 112.904 144.229 112.743 144.229 112.575C144.229 112.408 144.163 112.247 144.045 112.128C143.927 112.009 143.768 111.942 143.601 111.942H138.857C138.69 111.942 138.531 112.009 138.413 112.128C138.295 112.247 138.229 112.408 138.229 112.575C138.229 112.743 138.295 112.904 138.413 113.023C138.531 113.142 138.69 113.209 138.857 113.209Z" fill="#FAFAFA"/>
</g>
<path d="M89.9344 143.257H96.9522C97.1187 143.257 97.2783 143.191 97.3961 143.072C97.5138 142.953 97.5799 142.792 97.5799 142.624C97.5799 142.456 97.5138 142.295 97.3961 142.177C97.2783 142.058 97.1187 141.991 96.9522 141.991H89.9344C89.7679 141.991 89.6082 142.058 89.4905 142.177C89.3728 142.295 89.3066 142.456 89.3066 142.624C89.3066 142.792 89.3728 142.953 89.4905 143.072C89.6082 143.191 89.7679 143.257 89.9344 143.257Z" fill="#407BFF"/>
<path d="M89.6834 145.975H98.7863C98.9528 145.975 99.1125 145.908 99.2302 145.79C99.348 145.671 99.4141 145.51 99.4141 145.342C99.4141 145.174 99.348 145.013 99.2302 144.894C99.1125 144.776 98.9528 144.709 98.7863 144.709H89.6834C89.5169 144.709 89.3573 144.776 89.2395 144.894C89.1218 145.013 89.0557 145.174 89.0557 145.342C89.0557 145.51 89.1218 145.671 89.2395 145.79C89.3573 145.908 89.5169 145.975 89.6834 145.975Z" fill="#407BFF"/>
<path d="M89.6834 148.774H94.2349C94.4014 148.774 94.5611 148.707 94.6788 148.589C94.7965 148.47 94.8627 148.309 94.8627 148.141C94.8627 147.973 94.7965 147.812 94.6788 147.693C94.5611 147.575 94.4014 147.508 94.2349 147.508H89.6834C89.5169 147.508 89.3573 147.575 89.2395 147.693C89.1218 147.812 89.0557 147.973 89.0557 148.141C89.0557 148.309 89.1218 148.47 89.2395 148.589C89.3573 148.707 89.5169 148.774 89.6834 148.774Z" fill="#407BFF"/>
<g opacity="0.1">
<path d="M89.9344 143.257H96.9522C97.1187 143.257 97.2783 143.191 97.3961 143.072C97.5138 142.953 97.5799 142.792 97.5799 142.624C97.5799 142.456 97.5138 142.295 97.3961 142.177C97.2783 142.058 97.1187 141.991 96.9522 141.991H89.9344C89.7679 141.991 89.6082 142.058 89.4905 142.177C89.3728 142.295 89.3066 142.456 89.3066 142.624C89.3066 142.792 89.3728 142.953 89.4905 143.072C89.6082 143.191 89.7679 143.257 89.9344 143.257Z" fill="#FAFAFA"/>
<path d="M89.6834 145.975H98.7863C98.9528 145.975 99.1125 145.908 99.2302 145.79C99.348 145.671 99.4141 145.51 99.4141 145.342C99.4141 145.174 99.348 145.013 99.2302 144.894C99.1125 144.776 98.9528 144.709 98.7863 144.709H89.6834C89.5169 144.709 89.3573 144.776 89.2395 144.894C89.1218 145.013 89.0557 145.174 89.0557 145.342C89.0557 145.51 89.1218 145.671 89.2395 145.79C89.3573 145.908 89.5169 145.975 89.6834 145.975Z" fill="#FAFAFA"/>
<path d="M89.6834 148.774H94.2349C94.4014 148.774 94.5611 148.707 94.6788 148.589C94.7965 148.47 94.8627 148.309 94.8627 148.141C94.8627 147.973 94.7965 147.812 94.6788 147.693C94.5611 147.575 94.4014 147.508 94.2349 147.508H89.6834C89.5169 147.508 89.3573 147.575 89.2395 147.693C89.1218 147.812 89.0557 147.973 89.0557 148.141C89.0557 148.309 89.1218 148.47 89.2395 148.589C89.3573 148.707 89.5169 148.774 89.6834 148.774Z" fill="#FAFAFA"/>
</g>
<path d="M40.4426 72.2571L42.5637 72.1621L41.604 76.2319C40.8471 75.7093 40.1572 75.0941 39.5503 74.4005C39.3752 74.1929 39.2884 73.9241 39.3085 73.6524C39.3287 73.3807 39.4542 73.128 39.6579 72.9489L40.4426 72.2571Z" fill="#E4897B"/>
<path d="M45.0254 74.3553L44.0748 77.6654L41.604 76.2229L42.5636 72.1621L45.0254 74.3553Z" fill="#E4897B"/>
<path d="M44.6071 54.7041L40.2671 55.1094L50.2212 163.522L54.5612 163.116L44.6071 54.7041Z" fill="#407BFF"/>
<path opacity="0.3" d="M44.6071 54.7041L40.2671 55.1094L50.2212 163.522L54.5612 163.116L44.6071 54.7041Z" fill="black"/>
<path d="M53.2893 53.8916L48.9492 54.2969L58.9033 162.709L63.2434 162.304L53.2893 53.8916Z" fill="#407BFF"/>
<path opacity="0.3" d="M53.2893 53.8916L48.9492 54.2969L58.9033 162.709L63.2434 162.304L53.2893 53.8916Z" fill="black"/>
<path d="M48.9504 54.2979L44.6104 54.7031L54.5644 163.115L58.9045 162.71L48.9504 54.2979Z" fill="#407BFF"/>
<path opacity="0.1" d="M48.9504 54.2979L44.6104 54.7031L54.5644 163.115L58.9045 162.71L48.9504 54.2979Z" fill="black"/>
<path d="M48.0342 46.7168L44.1285 47.0831L40.2676 55.1096L53.2896 53.8932L48.0342 46.7168Z" fill="#407BFF"/>
<g opacity="0.8">
<path d="M48.0342 46.7168L44.1285 47.0831L40.2676 55.1096L53.2896 53.8932L48.0342 46.7168Z" fill="#FAFAFA"/>
</g>
<path d="M45.7831 43.6416L44.1284 47.0828L48.0341 46.7166L45.7831 43.6416Z" fill="#263238"/>
<path d="M78.5986 49.7695C79.047 50.2217 79.4192 50.6513 79.8049 51.1261C80.1905 51.6009 80.5582 52.0305 80.9259 52.4827C81.6658 53.3871 82.3564 54.3413 83.029 55.3135C84.4156 57.2903 85.5853 59.413 86.5177 61.6443C86.6298 61.9337 86.7329 62.2367 86.8405 62.5487L87.002 63.0009C87.0909 63.2716 87.1539 63.5502 87.1903 63.8329C87.2876 64.7329 87.1692 65.6432 86.845 66.4873C86.361 67.7334 85.6829 68.8936 84.8361 69.9241C83.339 71.7719 81.6152 73.4205 79.7062 74.8304L78.0157 73.0216C79.3462 71.3443 80.5627 69.5782 81.6568 67.7354C82.1362 66.9481 82.5044 66.0974 82.751 65.2076C82.8191 64.9893 82.8269 64.7563 82.7734 64.5338L82.6209 64.1992C82.5178 63.9776 82.4281 63.747 82.316 63.53C81.3668 61.6726 80.2564 59.9036 78.9977 58.2438C78.3699 57.38 77.7063 56.539 77.0336 55.6979C76.6973 55.2818 76.3565 54.8658 76.0068 54.4588L74.9844 53.2696L78.5986 49.7695Z" fill="#E4897B"/>
<path d="M75.3027 74.3999L77.213 78.212L79.0829 76.5886L77.5493 73.8799L75.3027 74.3999Z" fill="#E4897B"/>
<path d="M60.9129 52.0033C59.75 54.2371 58.5423 56.4454 57.2897 58.628C56.6754 59.7268 56.0296 60.8076 55.4019 61.8974L54.4378 63.5253L54.1956 63.9323C54.0745 64.1267 53.94 64.3573 53.8189 64.5111C53.6979 64.6648 53.5768 64.8502 53.4602 64.9904C53.3436 65.1306 53.2181 65.2889 53.1015 65.42C52.1957 66.4151 51.2313 67.3543 50.2137 68.2327C49.2316 69.0783 48.2496 69.9013 47.2362 70.6836C45.2318 72.2618 43.1735 73.7314 41.039 75.1332L39.501 73.1798L44.8147 67.9026C45.6847 66.9982 46.5636 66.1481 47.3931 65.2527C48.2082 64.4101 48.9762 63.5224 49.6935 62.5938C49.7802 62.4852 49.8564 62.3812 49.9222 62.2817C49.9984 62.1732 50.0522 62.0828 50.1061 61.9923C50.1524 61.9196 50.1944 61.8441 50.2316 61.7662L50.4379 61.3457L51.2675 59.6409C51.8369 58.5149 52.393 57.3799 52.9714 56.263C54.1164 54.011 55.3122 51.7847 56.5588 49.584L60.9129 52.0033Z" fill="#E4897B"/>
<path d="M73.4998 36.7281C73.4415 36.9904 73.5356 37.2391 73.7015 37.2843C73.8675 37.3295 74.0513 37.1487 74.1096 36.8864C74.1679 36.6241 74.0692 36.3754 73.9033 36.3302C73.7374 36.285 73.5401 36.4658 73.4998 36.7281Z" fill="#263238"/>
<path d="M73.5089 37.2344C73.6494 38.1164 73.9057 38.9756 74.2712 39.7893C74.0649 39.8717 73.8431 39.9075 73.6216 39.8942C73.4 39.8809 73.184 39.8189 72.9888 39.7124L73.5089 37.2344Z" fill="#DE5753"/>
<path d="M74.1861 35.1357C74.1542 35.1358 74.123 35.1263 74.0965 35.1086C73.9308 35.0065 73.743 34.9466 73.5493 34.934C73.3555 34.9214 73.1617 34.9564 72.9844 35.0362C72.9456 35.0514 72.9026 35.051 72.8641 35.035C72.8257 35.019 72.7949 34.9886 72.7781 34.9503C72.763 34.9112 72.7634 34.8678 72.7793 34.8291C72.7952 34.7903 72.8253 34.7592 72.8633 34.7423C73.09 34.6441 73.3368 34.6027 73.5828 34.6216C73.8287 34.6405 74.0665 34.7192 74.2758 34.8508C74.2929 34.8622 74.3075 34.8769 74.3188 34.894C74.33 34.9112 74.3378 34.9305 74.3416 34.9507C74.3453 34.971 74.345 34.9918 74.3407 35.0119C74.3363 35.032 74.328 35.0511 74.3162 35.0679C74.3016 35.089 74.2821 35.1062 74.2595 35.118C74.2368 35.1298 74.2116 35.1359 74.1861 35.1357Z" fill="#263238"/>
<path d="M64.4283 37.7266C64.9933 40.1594 65.6345 44.609 64.0112 46.2324C64.0112 46.2324 64.7646 48.6969 69.2443 48.6969C74.1769 48.6969 71.4863 46.2324 71.4863 46.2324C68.7734 45.5858 68.7645 43.5735 69.1591 41.6878L64.4283 37.7266Z" fill="#E4897B"/>
<path d="M63.4014 47.0783C63.0158 46.3006 62.5943 45.4052 63.4014 45.1248C64.2713 44.8173 69.1008 44.5053 70.7913 45.0796C71.2418 45.2011 71.6276 45.4948 71.867 45.8983C72.1064 46.3018 72.1806 46.7834 72.0738 47.2411L63.4014 47.0783Z" fill="#407BFF"/>
<path opacity="0.6" d="M63.4014 47.0783C63.0158 46.3006 62.5943 45.4052 63.4014 45.1248C64.2713 44.8173 69.1008 44.5053 70.7913 45.0796C71.2418 45.2011 71.6276 45.4948 71.867 45.8983C72.1064 46.3018 72.1806 46.7834 72.0738 47.2411L63.4014 47.0783Z" fill="#FAFAFA"/>
<path d="M56.9491 160.531C56.6596 160.529 56.3711 160.497 56.0882 160.436C56.0736 160.433 56.0602 160.426 56.0498 160.416C56.0394 160.405 56.0324 160.392 56.0299 160.377C56.0269 160.362 56.0283 160.346 56.0338 160.332C56.0394 160.317 56.0489 160.305 56.0612 160.296C56.0971 160.268 56.9581 159.644 57.4603 159.753C57.5146 159.762 57.566 159.784 57.611 159.816C57.656 159.848 57.6933 159.89 57.7204 159.938C57.7608 159.992 57.7826 160.058 57.7826 160.126C57.7826 160.194 57.7608 160.26 57.7204 160.314C57.6128 160.49 57.2854 160.531 56.9491 160.531ZM56.3079 160.323C56.8011 160.404 57.4738 160.404 57.6083 160.219C57.6083 160.219 57.6621 160.146 57.5859 160.015C57.5694 159.986 57.5468 159.962 57.5196 159.943C57.4925 159.924 57.4615 159.912 57.4289 159.907C57.0217 159.933 56.6315 160.081 56.3079 160.332V160.323Z" fill="#FAFAFA"/>
<path d="M56.1057 160.449H56.0653C56.0537 160.442 56.0441 160.432 56.0377 160.42C56.0314 160.408 56.0285 160.395 56.0295 160.381C56.0295 160.341 56.0698 159.382 56.442 159.065C56.4867 159.025 56.5394 158.995 56.5967 158.977C56.6539 158.959 56.7144 158.954 56.7738 158.961C56.8343 158.961 56.8929 158.983 56.9395 159.021C56.9862 159.06 57.018 159.114 57.0294 159.174C57.1012 159.545 56.4734 160.268 56.1326 160.454L56.1057 160.449ZM56.72 159.093C56.6556 159.093 56.5935 159.117 56.5452 159.16C56.3252 159.464 56.2031 159.829 56.1954 160.205C56.5182 159.947 56.9173 159.4 56.877 159.183C56.877 159.16 56.877 159.106 56.7559 159.093H56.72Z" fill="#FAFAFA"/>
<path d="M76.733 160.531C76.393 160.531 76.0538 160.499 75.7196 160.436C75.7039 160.433 75.6894 160.426 75.6781 160.415C75.6668 160.403 75.6594 160.389 75.6568 160.373C75.6543 160.357 75.6563 160.341 75.6627 160.327C75.6691 160.312 75.6795 160.3 75.6927 160.291C75.8586 160.196 77.3204 159.351 77.6747 159.934C77.7102 159.985 77.7292 160.046 77.7292 160.108C77.7292 160.171 77.7102 160.231 77.6747 160.282C77.576 160.481 77.1545 160.531 76.733 160.531ZM75.9662 160.318C76.585 160.409 77.4191 160.395 77.5626 160.192C77.5626 160.192 77.6074 160.129 77.5402 160.016C77.3429 159.694 76.455 160.079 75.9662 160.328V160.318Z" fill="#FAFAFA"/>
<path d="M75.7331 160.45C75.7184 160.454 75.7029 160.454 75.6883 160.45C75.677 160.442 75.6682 160.431 75.6626 160.418C75.6571 160.405 75.6551 160.391 75.6569 160.377C75.6569 160.341 75.7107 159.446 76.1053 159.098C76.1651 159.042 76.2364 159.001 76.3141 158.978C76.3917 158.954 76.4737 158.949 76.5537 158.962C76.7734 158.984 76.8362 159.098 76.8497 159.188C76.9124 159.572 76.1636 160.273 75.769 160.454L75.7331 160.45ZM76.4864 159.093C76.3869 159.092 76.2906 159.129 76.2174 159.197C75.9817 159.488 75.8449 159.848 75.8273 160.224C76.2219 159.979 76.7241 159.423 76.6927 159.193C76.6927 159.17 76.6927 159.111 76.5313 159.093H76.4864Z" fill="#FAFAFA"/>
<path d="M72.1099 160.368H75.4057L75.4371 152.676H72.1457L72.1099 160.368Z" fill="#E4897B"/>
<path d="M52.3301 160.368H55.6259L56.9891 152.676H53.6933L52.3301 160.368Z" fill="#E4897B"/>
<path d="M55.846 159.983H52.1465C52.0811 159.983 52.0175 160.005 51.9674 160.048C51.9172 160.09 51.8837 160.149 51.873 160.214L51.3349 163.167C51.3238 163.24 51.3287 163.315 51.3491 163.386C51.3696 163.457 51.4052 163.523 51.4534 163.579C51.5016 163.635 51.5613 163.68 51.6283 163.71C51.6953 163.74 51.7681 163.756 51.8416 163.755C53.133 163.732 53.7563 163.655 55.3841 163.655C56.3841 163.655 58.4513 163.764 59.8369 163.764C61.2225 163.764 61.3436 162.407 60.7741 162.258C58.2136 161.697 57.2271 160.924 56.3885 160.191C56.2388 160.058 56.0459 159.984 55.846 159.983Z" fill="#263238"/>
<path d="M75.3697 159.983H71.7824C71.717 159.983 71.6534 160.005 71.6032 160.048C71.553 160.09 71.5196 160.149 71.5088 160.214L70.9707 163.167C70.9582 163.24 70.9617 163.314 70.9811 163.385C71.0004 163.457 71.0351 163.523 71.0826 163.579C71.1301 163.635 71.1894 163.68 71.2561 163.71C71.3228 163.741 71.3953 163.756 71.4685 163.755C72.7644 163.732 74.6343 163.655 76.2665 163.655C78.1768 163.655 79.827 163.764 82.0646 163.764C83.4098 163.764 83.7372 162.407 83.1677 162.258C80.5669 161.688 78.4593 161.629 76.1813 160.246C75.9404 160.084 75.6592 159.993 75.3697 159.983Z" fill="#263238"/>
<path d="M57.729 46.984C54.6663 47.6984 51.4512 56.1862 51.4512 56.1862L57.8142 60.4731C59.2751 58.2393 60.5557 55.8909 61.6437 53.4504C63.3253 49.566 60.8545 46.2559 57.729 46.984Z" fill="#407BFF"/>
<path opacity="0.7" d="M57.729 46.984C54.6663 47.6984 51.4512 56.1862 51.4512 56.1862L57.8142 60.4731C59.2751 58.2393 60.5557 55.8909 61.6437 53.4504C63.3253 49.566 60.8545 46.2559 57.729 46.984Z" fill="black"/>
<path d="M60.1459 52.3965L57.5137 60.2693L57.8141 60.4728C57.8141 60.4728 59.0159 58.664 60.2939 56.2537L60.1459 52.3965Z" fill="#407BFF"/>
<path opacity="0.8" d="M60.1459 52.3965L57.5137 60.2693L57.8141 60.4728C57.8141 60.4728 59.0159 58.664 60.2939 56.2537L60.1459 52.3965Z" fill="black"/>
<path d="M78.28 61.8245C78.2531 65.5325 78.0333 70.1449 77.4863 75.8698H59.8635C59.6348 73.1566 60.8276 59.8348 57.729 46.9833C59.6673 46.6044 61.6281 46.3536 63.5988 46.2326C66.0929 46.0878 68.5932 46.0878 71.0874 46.2326C72.8074 46.4013 74.512 46.7036 76.1859 47.137C76.1859 47.137 77.6926 48.783 78.1499 56.5021C78.2396 58.0441 78.2889 59.7986 78.28 61.8245Z" fill="#407BFF"/>
<path opacity="0.7" d="M78.28 61.8245C78.2531 65.5325 78.0333 70.1449 77.4863 75.8698H59.8635C59.6348 73.1566 60.8276 59.8348 57.729 46.9833C59.6673 46.6044 61.6281 46.3536 63.5988 46.2326C66.0929 46.0878 68.5932 46.0878 71.0874 46.2326C72.8074 46.4013 74.512 46.7036 76.1859 47.137C76.1859 47.137 77.6926 48.783 78.1499 56.5021C78.2396 58.0441 78.2889 59.7986 78.28 61.8245Z" fill="black"/>
<path d="M78.28 61.8251C77.2127 59.8626 75.2756 55.9239 75.5491 53.6855L78.1499 56.5254C78.2396 58.0447 78.289 59.7993 78.28 61.8251Z" fill="#407BFF"/>
<path opacity="0.8" d="M78.28 61.8251C77.2127 59.8626 75.2756 55.9239 75.5491 53.6855L78.1499 56.5254C78.2396 58.0447 78.289 59.7993 78.28 61.8251Z" fill="black"/>
<path d="M72.733 50.1578C72.455 53.3232 79.5714 60.9382 79.5714 60.9382L85.2753 56.2534C83.7814 53.7112 81.9914 51.3581 79.9436 49.2444C76.6074 45.993 73.0469 46.6126 72.733 50.1578Z" fill="#407BFF"/>
<path opacity="0.7" d="M72.733 50.1578C72.455 53.3232 79.5714 60.9382 79.5714 60.9382L85.2753 56.2534C83.7814 53.7112 81.9914 51.3581 79.9436 49.2444C76.6074 45.993 73.0469 46.6126 72.733 50.1578Z" fill="black"/>
<path d="M75.4372 152.681L75.4193 156.642H72.1279L72.1414 152.681H75.4372Z" fill="#CE6F64"/>
<path d="M53.6933 152.681H56.9891L56.2851 156.642H52.9893L53.6933 152.681Z" fill="#CE6F64"/>
<path d="M65.0205 33.9831C64.5406 37.2571 64.0967 39.1382 65.3433 41.2183C65.7396 41.892 66.3111 42.4434 66.996 42.8129C67.6808 43.1823 68.4529 43.3557 69.2285 43.3142C70.0041 43.2728 70.7537 43.018 71.396 42.5777C72.0383 42.1373 72.5488 41.528 72.8722 40.8159C74.1592 38.1027 74.7332 33.2008 71.9037 31.1298C71.3066 30.6649 70.5987 30.3667 69.8511 30.2653C69.1035 30.1638 68.3426 30.2627 67.6449 30.5519C66.9472 30.8411 66.3374 31.3105 65.8767 31.9128C65.416 32.5152 65.1207 33.2292 65.0205 33.9831Z" fill="#E4897B"/>
<path d="M74.7733 32.4318C73.8028 32.9662 72.735 33.297 71.6343 33.404C70.8137 37.1889 68.6299 41.5436 65.0964 40.291C63.7512 39.8388 62.4059 36.5513 62.2669 33.6346C62.0337 33.9195 61.8768 34.2903 61.7557 34.444C61.554 33.1478 61.6996 31.8208 62.1772 30.6004C63.1548 27.8058 63.805 29.6598 64.8677 27.964C65.5538 26.8426 66.7735 26.2638 68.9035 26.1914C68.3071 26.5034 68.195 27.0054 69.0784 26.933C69.9617 26.8607 73.7329 26.6527 75.9302 28.1494C74.4459 28.4886 75.3517 30.8626 77.3337 29.5965C76.6118 30.7767 75.7149 31.8982 74.7733 32.4318Z" fill="#263238"/>
<path d="M69.0967 36.0088C69.1092 36.8413 69.3858 37.6479 69.8859 38.3104C70.5541 39.1787 71.3209 38.7626 71.5047 37.7859C71.6661 36.9177 71.5047 35.4164 70.6706 34.8918C69.8366 34.3673 69.0922 35.0139 69.0967 36.0088Z" fill="#E4897B"/>
<path d="M65.0786 28.3166C64.6311 28.2879 64.1974 28.1494 63.8152 27.9129C63.433 27.6764 63.1139 27.3493 62.8859 26.96C62.8859 26.96 62.8276 29.6098 65.0786 28.3166Z" fill="#1E2A4C"/>
<path d="M71.2311 75.8696C71.2311 75.8696 68.4689 101.256 66.7783 110.766C64.9309 121.166 57.81 155.877 57.81 155.877H51.7563C51.7563 155.877 56.0522 122.021 56.949 111.693C57.9131 100.501 59.8817 75.8516 59.8817 75.8516L71.2311 75.8696Z" fill="#407BFF"/>
<path opacity="0.6" d="M71.2311 75.8696C71.2311 75.8696 68.4689 101.256 66.7783 110.766C64.9309 121.166 57.81 155.877 57.81 155.877H51.7563C51.7563 155.877 56.0522 122.021 56.949 111.693C57.9131 100.501 59.8817 75.8516 59.8817 75.8516L71.2311 75.8696Z" fill="#FAFAFA"/>
<path d="M58.6663 153.635C58.6932 153.635 58.1327 155.973 58.1327 155.973H51.3481L51.393 153.888L58.6663 153.635Z" fill="#407BFF"/>
<path opacity="0.1" d="M58.6663 153.635C58.6932 153.635 58.1327 155.973 58.1327 155.973H51.3481L51.393 153.888L58.6663 153.635Z" fill="#FAFAFA"/>
<path d="M69.2175 84.9141C64.9261 85.7687 66.0068 102.025 66.8454 110.386C67.8678 104.476 69.2579 93.1034 70.1951 85.0316C69.8916 84.8825 69.5472 84.8411 69.2175 84.9141Z" fill="#407BFF"/>
<path opacity="0.4" d="M69.2175 84.9141C64.9261 85.7687 66.0068 102.025 66.8454 110.386C67.8678 104.476 69.2579 93.1034 70.1951 85.0316C69.8916 84.8825 69.5472 84.8411 69.2175 84.9141Z" fill="#FAFAFA"/>
<path d="M77.482 75.8701C77.482 75.8701 78.8901 100.705 78.917 110.839C78.9484 121.375 76.6211 155.878 76.6211 155.878H71.0383C71.0383 155.878 69.5361 121.99 68.8904 111.644C68.1908 100.361 65.8994 75.8701 65.8994 75.8701H77.482Z" fill="#407BFF"/>
<path opacity="0.6" d="M77.482 75.8701C77.482 75.8701 78.8901 100.705 78.917 110.839C78.9484 121.375 76.6211 155.878 76.6211 155.878H71.0383C71.0383 155.878 69.5361 121.99 68.8904 111.644C68.1908 100.361 65.8994 75.8701 65.8994 75.8701H77.482Z" fill="#FAFAFA"/>
<path d="M78.8315 72.6777L77.2665 72.8043C77.139 72.8151 77.0155 72.8544 76.905 72.9194C76.7945 72.9844 76.6997 73.0733 76.6275 73.1799C76.5554 73.2864 76.5077 73.4078 76.4879 73.5353C76.4681 73.6628 76.4768 73.7931 76.5132 73.9168L77.1589 76.1099C77.2134 76.2881 77.3098 76.4504 77.4399 76.583C77.57 76.7155 77.7299 76.8144 77.906 76.8713C78.0821 76.9281 78.2693 76.9412 78.4515 76.9094C78.6337 76.8776 78.8056 76.8019 78.9526 76.6887C79.761 75.93 80.3407 74.9567 80.6252 73.8806L78.8315 72.6777Z" fill="#E4897B"/>
<path d="M75.298 151.835C75.2829 151.832 75.2691 151.825 75.2593 151.813C75.2494 151.801 75.244 151.787 75.2441 151.771C75.863 142.225 77.2979 119.122 77.271 110.838C77.271 102.359 76.2486 83.3942 75.9257 77.7824C75.9251 77.7749 75.926 77.7674 75.9285 77.7603C75.9309 77.7531 75.9348 77.7466 75.9398 77.7411C75.9449 77.7356 75.951 77.7312 75.9579 77.7281C75.9647 77.7251 75.9721 77.7236 75.9795 77.7236C75.9943 77.7236 76.0084 77.7292 76.0193 77.7392C76.0301 77.7493 76.0367 77.7631 76.0378 77.7779C76.3428 83.3897 77.3427 102.355 77.3831 110.838C77.41 119.127 75.9751 142.23 75.3562 151.78C75.3563 151.788 75.3547 151.795 75.3518 151.802C75.3488 151.809 75.3444 151.815 75.3389 151.82C75.3335 151.825 75.327 151.829 75.3199 151.832C75.3129 151.834 75.3054 151.835 75.298 151.835Z" fill="#407BFF"/>
<path opacity="0.3" d="M75.298 151.835C75.2829 151.832 75.2691 151.825 75.2593 151.813C75.2494 151.801 75.244 151.787 75.2441 151.771C75.863 142.225 77.2979 119.122 77.271 110.838C77.271 102.359 76.2486 83.3942 75.9257 77.7824C75.9251 77.7749 75.926 77.7674 75.9285 77.7603C75.9309 77.7531 75.9348 77.7466 75.9398 77.7411C75.9449 77.7356 75.951 77.7312 75.9579 77.7281C75.9647 77.7251 75.9721 77.7236 75.9795 77.7236C75.9943 77.7236 76.0084 77.7292 76.0193 77.7392C76.0301 77.7493 76.0367 77.7631 76.0378 77.7779C76.3428 83.3897 77.3427 102.355 77.3831 110.838C77.41 119.127 75.9751 142.23 75.3562 151.78C75.3563 151.788 75.3547 151.795 75.3518 151.802C75.3488 151.809 75.3444 151.815 75.3389 151.82C75.3335 151.825 75.327 151.829 75.3199 151.832C75.3129 151.834 75.3054 151.835 75.298 151.835Z" fill="#FAFAFA"/>
<path d="M77.6074 153.635C77.6343 153.635 77.3832 155.973 77.3832 155.973H70.5942L70.3296 153.888L77.6074 153.635Z" fill="#407BFF"/>
<path opacity="0.1" d="M77.6074 153.635C77.6343 153.635 77.3832 155.973 77.3832 155.973H70.5942L70.3296 153.888L77.6074 153.635Z" fill="#FAFAFA"/>
</svg>
